<svg width="120" height="40" viewBox="0 0 120 40" fill="none" xmlns="http://www.w3.org/2000/svg">
<g clip-path="url(#clip0_924_50864)">
<path d="M110.135 0.00013H9.53468C9.16798 0.00013 8.80568 0.00013 8.43995 0.00213C8.1338 0.00413 7.83009 0.00994 7.521 0.01483C6.84951 0.0227318 6.17961 0.0818063 5.5171 0.19154C4.85552 0.303663 4.21467 0.515046 3.61622 0.81854C3.0185 1.1246 2.47235 1.5223 1.99757 1.9972C1.5203 2.47077 1.12246 3.01815 0.81935 3.61829C0.5154 4.21724 0.304641 4.85907 0.19435 5.52161C0.0830109 6.18332 0.0230984 6.85265 0.01515 7.52361C0.00587 7.83021 0.00489 8.13783 0 8.44447V31.5587C0.00489 31.8692 0.00587 32.17 0.01515 32.4806C0.0231008 33.1516 0.0830134 33.8209 0.19435 34.4825C0.304336 35.1455 0.515108 35.7877 0.81935 36.3868C1.12233 36.985 1.52022 37.5302 1.99757 38.0011C2.47054 38.4781 3.01705 38.8761 3.61622 39.1798C4.21467 39.4841 4.85545 39.6968 5.5171 39.8106C6.17972 39.9195 6.84956 39.9786 7.521 39.9874C7.83009 39.9942 8.1338 39.9981 8.43995 39.9981C8.80567 40.0001 9.168 40.0001 9.53468 40.0001H110.135C110.494 40.0001 110.859 40.0001 111.219 39.9981C111.523 39.9981 111.836 39.9942 112.141 39.9874C112.811 39.9791 113.479 39.92 114.141 39.8106C114.804 39.696 115.448 39.4834 116.049 39.1798C116.647 38.8759 117.193 38.478 117.666 38.0011C118.142 37.5284 118.541 36.9836 118.848 36.3868C119.15 35.7872 119.358 35.1451 119.467 34.4825C119.578 33.8208 119.64 33.1516 119.652 32.4806C119.656 32.17 119.656 31.8692 119.656 31.5587C119.664 31.1954 119.664 30.8341 119.664 30.4649V9.53626C119.664 9.17005 119.664 8.80677 119.656 8.44447C119.656 8.13783 119.656 7.83021 119.652 7.52357C119.64 6.85255 119.578 6.18337 119.467 5.52157C119.358 4.85941 119.149 4.21763 118.848 3.61825C118.23 2.41533 117.252 1.43616 116.049 0.81845C115.448 0.515697 114.804 0.30437 114.141 0.19145C113.48 0.0812328 112.811 0.0221378 112.141 0.01469C111.836 0.00981 111.523 0.00395 111.219 0.002C110.859 0 110.494 0.00013 110.135 0.00013Z" fill="#A6A6A6"/>
<path d="M8.44487 39.125C8.14019 39.125 7.84287 39.1211 7.54058 39.1143C6.91436 39.1061 6.2896 39.0516 5.67144 38.9512C5.09503 38.8519 4.53664 38.6673 4.0147 38.4033C3.49754 38.1415 3.02585 37.7983 2.6177 37.3867C2.20364 36.98 1.85891 36.5082 1.59719 35.9902C1.33258 35.4688 1.14945 34.9099 1.05419 34.333C0.951311 33.7131 0.895651 33.0863 0.887687 32.458C0.881347 32.2471 0.873047 31.5449 0.873047 31.5449V8.44434C0.873047 8.44434 0.881887 7.75293 0.887737 7.5498C0.895363 6.92248 0.950699 6.29665 1.05327 5.67773C1.14871 5.09925 1.33197 4.53875 1.59673 4.01563C1.85749 3.49794 2.2003 3.02586 2.61187 2.61768C3.02297 2.20562 3.49617 1.8606 4.01421 1.59521C4.53495 1.33209 5.09228 1.14873 5.66753 1.05127C6.28772 0.949836 6.91465 0.894996 7.54304 0.88721L8.44536 0.875H111.214L112.127 0.8877C112.75 0.895099 113.371 0.94945 113.985 1.05029C114.566 1.14898 115.13 1.33362 115.656 1.59814C116.694 2.13299 117.539 2.97916 118.071 4.01807C118.332 4.53758 118.512 5.09351 118.607 5.66699C118.71 6.29099 118.768 6.92174 118.78 7.5542C118.783 7.8374 118.783 8.1416 118.783 8.44434C118.791 8.81934 118.791 9.17627 118.791 9.53613V30.4648C118.791 30.8281 118.791 31.1826 118.783 31.54C118.783 31.8652 118.783 32.1631 118.779 32.4697C118.768 33.0909 118.711 33.7104 118.608 34.3232C118.515 34.9043 118.333 35.4675 118.068 35.9932C117.805 36.5056 117.462 36.9733 117.053 37.3789C116.644 37.7927 116.172 38.1379 115.653 38.4014C115.128 38.6674 114.566 38.8527 113.985 38.9512C113.367 39.0522 112.742 39.1067 112.116 39.1143C111.823 39.1211 111.517 39.125 111.219 39.125L110.135 39.127L8.44487 39.125Z" fill="black"/>
<path d="M24.769 20.3007C24.7797 19.466 25.0014 18.6476 25.4135 17.9217C25.8255 17.1957 26.4145 16.5858 27.1256 16.1486C26.6738 15.5035 26.0779 14.9725 25.385 14.598C24.6922 14.2234 23.9216 14.0156 23.1344 13.9909C21.4552 13.8147 19.8272 14.9958 18.9715 14.9958C18.0992 14.9958 16.7817 14.0084 15.363 14.0376C14.4453 14.0673 13.551 14.3341 12.7671 14.8122C11.9832 15.2902 11.3365 15.9632 10.8901 16.7655C8.95607 20.1139 10.3987 25.035 12.2513 27.7416C13.1782 29.0669 14.2615 30.5474 15.6789 30.4949C17.066 30.4374 17.584 29.6104 19.2583 29.6104C20.9171 29.6104 21.4031 30.4949 22.8493 30.4615C24.3377 30.4373 25.2754 29.1303 26.1698 27.7924C26.8358 26.848 27.3483 25.8043 27.6882 24.6999C26.8235 24.3341 26.0856 23.7219 25.5665 22.9396C25.0474 22.1574 24.77 21.2395 24.769 20.3007Z" fill="white"/>
<path d="M22.0376 12.2109C22.8491 11.2367 23.2489 9.98451 23.1521 8.72028C21.9123 8.8505 20.767 9.44306 19.9445 10.3799C19.5424 10.8376 19.2344 11.37 19.0381 11.9468C18.8419 12.5235 18.7612 13.1333 18.8008 13.7413C19.4209 13.7477 20.0344 13.6132 20.5951 13.3482C21.1558 13.0831 21.649 12.6942 22.0376 12.2109Z" fill="white"/>
<path d="M42.3027 27.1397H37.5693L36.4326 30.4961H34.4277L38.9111 18.0781H40.9941L45.4775 30.4961H43.4385L42.3027 27.1397ZM38.0596 25.5908H41.8116L39.962 20.1436H39.9102L38.0596 25.5908Z" fill="white"/>
<path d="M55.1602 25.9697C55.1602 28.7832 53.6543 30.5908 51.3819 30.5908C50.8062 30.6209 50.2337 30.4883 49.7299 30.2082C49.2261 29.9281 48.8114 29.5117 48.5332 29.0068H48.4902V33.4912H46.6318V21.4424H48.4307V22.9483H48.4649C48.7558 22.4458 49.1776 22.0316 49.6852 21.7498C50.1928 21.4679 50.7674 21.3289 51.3477 21.3477C53.6455 21.3477 55.1602 23.1641 55.1602 25.9697ZM53.25 25.9697C53.25 24.1367 52.3028 22.9317 50.8574 22.9317C49.4375 22.9317 48.4824 24.1621 48.4824 25.9697C48.4824 27.794 49.4375 29.0156 50.8574 29.0156C52.3028 29.0156 53.25 27.8194 53.25 25.9697Z" fill="white"/>
<path d="M65.125 25.9697C65.125 28.7832 63.6192 30.5908 61.3467 30.5908C60.7711 30.6209 60.1986 30.4883 59.6948 30.2082C59.191 29.9281 58.7762 29.5117 58.4981 29.0068H58.4551V33.4912H56.5967V21.4424H58.3955V22.9482H58.4297C58.7206 22.4458 59.1424 22.0316 59.65 21.7497C60.1576 21.4679 60.7322 21.3289 61.3125 21.3477C63.6104 21.3477 65.125 23.1641 65.125 25.9697ZM63.2149 25.9697C63.2149 24.1367 62.2676 22.9316 60.8223 22.9316C59.4024 22.9316 58.4473 24.1621 58.4473 25.9697C58.4473 27.794 59.4024 29.0156 60.8223 29.0156C62.2676 29.0156 63.2149 27.8193 63.2149 25.9697Z" fill="white"/>
<path d="M71.711 27.0361C71.8487 28.2676 73.045 29.0761 74.6797 29.0761C76.2461 29.0761 77.3731 28.2675 77.3731 27.1572C77.3731 26.1933 76.6934 25.6162 75.084 25.2207L73.4746 24.833C71.1944 24.2822 70.1358 23.2158 70.1358 21.4853C70.1358 19.3427 72.003 17.871 74.6543 17.871C77.2783 17.871 79.0772 19.3427 79.1377 21.4853H77.2617C77.1494 20.246 76.125 19.498 74.6279 19.498C73.1309 19.498 72.1065 20.2548 72.1065 21.3564C72.1065 22.2343 72.7608 22.7509 74.3613 23.1464L75.7295 23.4823C78.2773 24.0849 79.3359 25.1083 79.3359 26.9247C79.3359 29.248 77.4854 30.703 74.542 30.703C71.7881 30.703 69.9287 29.2821 69.8086 27.036L71.711 27.0361Z" fill="white"/>
<path d="M83.3467 19.2998V21.4424H85.0684V22.9141H83.3467V27.9053C83.3467 28.6807 83.6914 29.042 84.4482 29.042C84.6526 29.0384 84.8567 29.0241 85.0596 28.999V30.4619C84.7193 30.5255 84.3734 30.5543 84.0273 30.5478C82.1943 30.5478 81.4795 29.8593 81.4795 28.1035V22.9141H80.1631V21.4424H81.4795V19.2998H83.3467Z" fill="white"/>
<path d="M86.0654 25.9697C86.0654 23.1211 87.7432 21.3311 90.3594 21.3311C92.9844 21.3311 94.6543 23.1211 94.6543 25.9697C94.6543 28.8262 92.9932 30.6084 90.3594 30.6084C87.7265 30.6084 86.0654 28.8262 86.0654 25.9697ZM92.7607 25.9697C92.7607 24.0156 91.8652 22.8623 90.3594 22.8623C88.8535 22.8623 87.959 24.0244 87.959 25.9697C87.959 27.9316 88.8535 29.0762 90.3594 29.0762C91.8652 29.0762 92.7607 27.9316 92.7607 25.9697Z" fill="white"/>
<path d="M96.1865 21.4424H97.959V22.9834H98.002C98.1219 22.5021 98.4039 22.0768 98.8005 21.7789C99.197 21.481 99.6841 21.3287 100.18 21.3476C100.394 21.3469 100.607 21.3702 100.816 21.417V23.1553C100.546 23.0726 100.264 23.0347 99.9814 23.043C99.7115 23.032 99.4423 23.0796 99.1925 23.1825C98.9426 23.2854 98.718 23.4411 98.534 23.639C98.3501 23.8369 98.2111 24.0723 98.1267 24.3289C98.0422 24.5856 98.0143 24.8575 98.0449 25.126V30.4961H96.1865L96.1865 21.4424Z" fill="white"/>
<path d="M109.385 27.8369C109.135 29.4805 107.534 30.6084 105.486 30.6084C102.853 30.6084 101.218 28.8437 101.218 26.0127C101.218 23.1729 102.861 21.3311 105.408 21.3311C107.913 21.3311 109.488 23.0518 109.488 25.7969V26.4336H103.094V26.5459C103.064 26.8791 103.106 27.2148 103.216 27.5306C103.326 27.8464 103.502 28.1352 103.733 28.3778C103.963 28.6203 104.242 28.8111 104.552 28.9374C104.862 29.0637 105.195 29.1226 105.529 29.1103C105.968 29.1515 106.409 29.0498 106.786 28.8203C107.163 28.5909 107.455 28.246 107.62 27.8369L109.385 27.8369ZM103.103 25.1348H107.629C107.646 24.8352 107.6 24.5354 107.495 24.2541C107.391 23.9729 107.229 23.7164 107.021 23.5006C106.812 23.2849 106.561 23.1145 106.284 23.0003C106.006 22.8861 105.708 22.8305 105.408 22.8369C105.106 22.8351 104.806 22.8933 104.526 23.008C104.245 23.1227 103.991 23.2918 103.777 23.5054C103.562 23.7191 103.392 23.973 103.277 24.2527C103.161 24.5323 103.102 24.8321 103.103 25.1348Z" fill="white"/>
<path d="M37.8262 8.731C38.2158 8.70304 38.6067 8.7619 38.9709 8.90333C39.335 9.04477 39.6632 9.26525 39.9317 9.54887C40.2003 9.8325 40.4026 10.1722 40.524 10.5435C40.6454 10.9147 40.6829 11.3083 40.6338 11.6958C40.6338 13.6021 39.6035 14.6978 37.8262 14.6978H35.6709V8.731H37.8262ZM36.5976 13.854H37.7226C38.0011 13.8706 38.2797 13.825 38.5382 13.7204C38.7967 13.6158 39.0287 13.4548 39.2172 13.2492C39.4057 13.0437 39.546 12.7987 39.6278 12.5321C39.7097 12.2654 39.7311 11.9839 39.6904 11.708C39.7281 11.4332 39.7046 11.1534 39.6215 10.8887C39.5383 10.6241 39.3977 10.3811 39.2096 10.1771C39.0216 9.9732 38.7907 9.81339 38.5337 9.70916C38.2766 9.60492 37.9996 9.55884 37.7226 9.57421H36.5976V13.854Z" fill="white"/>
<path d="M45.7116 13.4819C45.5908 13.8935 45.3293 14.2494 44.9726 14.4876C44.6159 14.7257 44.1868 14.8309 43.7604 14.7847C43.4638 14.7925 43.1689 14.7357 42.8964 14.6181C42.6239 14.5006 42.3803 14.3252 42.1824 14.104C41.9845 13.8829 41.837 13.6213 41.7503 13.3375C41.6637 13.0537 41.6398 12.7544 41.6803 12.4604C41.6408 12.1655 41.6651 11.8656 41.7516 11.5809C41.8381 11.2963 41.9848 11.0335 42.1816 10.8104C42.3785 10.5874 42.621 10.4092 42.8927 10.288C43.1644 10.1668 43.459 10.1054 43.7565 10.1079C45.0094 10.1079 45.7653 10.9639 45.7653 12.3779V12.688H42.5857V12.7378C42.5717 12.903 42.5925 13.0694 42.6466 13.2261C42.7008 13.3829 42.787 13.5266 42.8999 13.648C43.0129 13.7695 43.1499 13.866 43.3023 13.9314C43.4547 13.9968 43.6191 14.0296 43.7849 14.0278C43.9975 14.0533 44.2128 14.015 44.4036 13.9178C44.5943 13.8206 44.7519 13.6689 44.8562 13.4819L45.7116 13.4819ZM42.5856 12.0308H44.86C44.8712 11.8796 44.8507 11.7278 44.7997 11.5851C44.7487 11.4424 44.6685 11.3119 44.5641 11.2021C44.4597 11.0922 44.3335 11.0054 44.1936 10.9472C44.0537 10.889 43.9031 10.8608 43.7516 10.8643C43.5979 10.8623 43.4454 10.8912 43.303 10.9491C43.1606 11.0071 43.0313 11.0929 42.9227 11.2017C42.814 11.3104 42.7282 11.4397 42.6703 11.5821C42.6124 11.7245 42.5836 11.8771 42.5856 12.0308Z" fill="white"/>
<path d="M48.6045 10.1079C49.6172 10.1079 50.2793 10.5791 50.3662 11.373H49.5137C49.4317 11.0425 49.1084 10.8315 48.6045 10.8315C48.1084 10.8315 47.7315 11.0669 47.7315 11.4185C47.7315 11.6875 47.959 11.8569 48.4473 11.9688L49.1953 12.1421C50.0518 12.3408 50.4531 12.709 50.4531 13.3706C50.4531 14.2183 49.6631 14.7847 48.5879 14.7847C47.5166 14.7847 46.8184 14.3008 46.7393 13.5029H47.6289C47.7056 13.6928 47.8438 13.8515 48.0214 13.9534C48.1991 14.0553 48.4058 14.0946 48.6084 14.0649C49.1621 14.0649 49.5557 13.8169 49.5557 13.457C49.5557 13.1885 49.3447 13.0146 48.8936 12.9072L48.1084 12.7251C47.2519 12.5225 46.8555 12.1382 46.8555 11.4683C46.8555 10.6699 47.5869 10.1079 48.6045 10.1079Z" fill="white"/>
<path d="M54.599 11.6665C54.5423 11.433 54.4039 11.2275 54.2088 11.0872C54.0138 10.947 53.7749 10.8812 53.5355 10.9018C52.7914 10.9018 52.3363 11.4721 52.3363 12.4316C52.3363 13.4077 52.7953 13.9907 53.5355 13.9907C53.7725 14.0182 54.0114 13.9581 54.2073 13.8218C54.4031 13.6855 54.5424 13.4823 54.599 13.2505H55.4632C55.4061 13.7064 55.1731 14.122 54.8139 14.4086C54.4546 14.6953 53.9977 14.8302 53.5404 14.7847C53.2393 14.7942 52.9398 14.7378 52.6628 14.6194C52.3857 14.5011 52.1379 14.3237 51.9366 14.0995C51.7353 13.8754 51.5855 13.61 51.4975 13.3219C51.4094 13.0338 51.3854 12.73 51.4271 12.4317C51.3875 12.1355 51.4131 11.8343 51.5019 11.549C51.5908 11.2638 51.7408 11.0014 51.9416 10.7801C52.1424 10.5588 52.389 10.384 52.6643 10.2679C52.9396 10.1519 53.2369 10.0972 53.5355 10.1079C53.9965 10.0655 54.4559 10.2046 54.816 10.4957C55.176 10.7867 55.4082 11.2068 55.4632 11.6665L54.599 11.6665Z" fill="white"/>
<path d="M56.3447 13.4243C56.3447 12.6138 56.9482 12.1465 58.0195 12.0801L59.2393 12.0098V11.6211C59.2393 11.1455 58.9248 10.877 58.3174 10.877C57.8213 10.877 57.4775 11.0591 57.3789 11.3774H56.5186C56.6094 10.604 57.3369 10.1079 58.3584 10.1079C59.4873 10.1079 60.124 10.6699 60.124 11.6211V14.6978H59.2686V14.0649H59.1982C59.0555 14.2919 58.8551 14.477 58.6175 14.6012C58.3799 14.7254 58.1135 14.7843 57.8457 14.7719C57.6567 14.7916 57.4656 14.7714 57.2849 14.7127C57.1041 14.654 56.9376 14.5581 56.7962 14.4311C56.6548 14.3042 56.5416 14.149 56.4638 13.9756C56.386 13.8022 56.3455 13.6144 56.3447 13.4243ZM57.5068 8.18066C57.5221 8.39403 57.6176 8.59371 57.7741 8.73948C57.9307 8.88525 58.1367 8.96629 58.3506 8.96629C58.5645 8.96629 58.7705 8.88525 58.927 8.73948C59.0836 8.59371 59.1791 8.39403 59.1943 8.18066H59.9092C59.8672 8.56482 59.6848 8.91995 59.3971 9.17793C59.1094 9.43591 58.7365 9.57858 58.3501 9.57858C57.9637 9.57858 57.5908 9.43591 57.3031 9.17793C57.0154 8.91995 56.833 8.56482 56.791 8.18066H57.5068ZM59.2393 13.0396V12.6631L58.1396 12.7334C57.5195 12.7749 57.2383 12.9858 57.2383 13.3828C57.2383 13.7881 57.5898 14.0239 58.0733 14.0239C58.2149 14.0383 58.358 14.024 58.494 13.9819C58.63 13.9398 58.7562 13.8708 58.865 13.7789C58.9737 13.6871 59.0629 13.5743 59.1272 13.4473C59.1915 13.3202 59.2296 13.1816 59.2393 13.0396Z" fill="white"/>
<path d="M61.5156 10.1948H62.3711V10.8852H62.4375C62.5333 10.6456 62.7025 10.4424 62.921 10.3049C63.1394 10.1675 63.3958 10.1028 63.6533 10.1201C63.7864 10.1183 63.9193 10.1308 64.0498 10.1572V11.0342C63.8867 10.9994 63.7205 10.9814 63.5537 10.9805C63.4071 10.9673 63.2594 10.985 63.1201 11.0323C62.9807 11.0796 62.8528 11.1556 62.7446 11.2553C62.6363 11.355 62.5501 11.4762 62.4915 11.6112C62.4329 11.7462 62.4032 11.8919 62.4043 12.0391V14.6978H61.5156L61.5156 10.1948Z" fill="white"/>
<path d="M67.8651 11.6665C67.8084 11.433 67.67 11.2275 67.4749 11.0872C67.2799 10.947 67.041 10.8812 66.8016 10.9018C66.0575 10.9018 65.6024 11.4722 65.6024 12.4316C65.6024 13.4077 66.0614 13.9907 66.8016 13.9907C67.0386 14.0182 67.2775 13.9581 67.4734 13.8218C67.6692 13.6855 67.8085 13.4823 67.8651 13.2505H68.7293C68.6721 13.7064 68.4391 14.122 68.0799 14.4086C67.7207 14.6953 67.2637 14.8302 66.8065 14.7847C66.5053 14.7942 66.2058 14.7378 65.9287 14.6195C65.6517 14.5011 65.4038 14.3237 65.2025 14.0996C65.0012 13.8755 64.8512 13.6101 64.7632 13.322C64.6751 13.0339 64.6511 12.73 64.6927 12.4317C64.6532 12.1355 64.6787 11.8343 64.7677 11.549C64.8566 11.2637 65.0067 11.0013 65.2075 10.78C65.4083 10.5588 65.655 10.384 65.9303 10.2679C66.2056 10.1518 66.503 10.0972 66.8016 10.1079C67.2626 10.0655 67.722 10.2046 68.082 10.4956C68.442 10.7867 68.6743 11.2068 68.7293 11.6665H67.8651Z" fill="white"/>
<path d="M69.6113 13.4243C69.6113 12.6138 70.2148 12.1465 71.2861 12.0801L72.5059 12.0098V11.6211C72.5059 11.1455 72.1914 10.877 71.584 10.877C71.0879 10.877 70.7441 11.0591 70.6455 11.3774H69.7852C69.876 10.604 70.6035 10.1079 71.625 10.1079C72.7539 10.1079 73.3906 10.6699 73.3906 11.6211V14.6978H72.5352V14.0649H72.4648C72.3221 14.2919 72.1217 14.477 71.8841 14.6012C71.6465 14.7254 71.3801 14.7843 71.1123 14.7719C70.9233 14.7916 70.7322 14.7714 70.5515 14.7127C70.3707 14.654 70.2042 14.5581 70.0628 14.4311C69.9214 14.3042 69.8082 14.149 69.7304 13.9756C69.6526 13.8021 69.6121 13.6144 69.6113 13.4243ZM72.5059 13.0395V12.6631L71.4062 12.7334C70.7861 12.7749 70.5049 12.9858 70.5049 13.3828C70.5049 13.7881 70.8564 14.0239 71.3399 14.0239C71.4815 14.0382 71.6246 14.0239 71.7606 13.9819C71.8966 13.9398 72.0228 13.8707 72.1315 13.7789C72.2403 13.6871 72.3295 13.5743 72.3938 13.4473C72.4581 13.3202 72.4962 13.1816 72.5059 13.0395Z" fill="white"/>
<path d="M75.9853 10.9639V13.2793C75.9853 13.751 76.1797 13.9575 76.6221 13.9575C76.7353 13.9572 76.8485 13.9503 76.9609 13.937V14.6772C76.8013 14.7058 76.6396 14.721 76.4775 14.7226C76.4111 14.7226 76.3447 14.7226 76.2832 14.7183L76.0928 15.2022C76.6387 15.2149 76.9531 15.4668 76.9531 15.9009C76.9531 16.3892 76.5683 16.7075 75.9111 16.7075C75.7061 16.7113 75.5015 16.6877 75.3027 16.6372V16.1411C75.4656 16.1779 75.6319 16.1972 75.7988 16.1987C76.1132 16.1987 76.2783 16.1035 76.2783 15.9219C76.2783 15.7441 76.1093 15.6694 75.6914 15.6694H75.4473V15.2686L75.7207 14.6152C75.2822 14.4536 75.0957 14.1064 75.0957 13.5068V10.9638H74.3809V10.2153H75.0957V9.07373H75.9854V10.2153H76.9609V10.9639H75.9853Z" fill="white"/>
<path d="M78.0166 8.86327C78.0098 8.74817 78.0377 8.63366 78.0966 8.53458C78.1556 8.4355 78.243 8.35641 78.3474 8.30756C78.4519 8.2587 78.5686 8.24234 78.6824 8.26058C78.7963 8.27882 78.902 8.33082 78.986 8.40986C79.0699 8.48889 79.1282 8.59132 79.1533 8.70386C79.1784 8.81641 79.1691 8.93389 79.1266 9.04109C79.0841 9.14829 79.0104 9.24026 78.9151 9.3051C78.8198 9.36995 78.7071 9.40467 78.5918 9.40477C78.5181 9.40853 78.4444 9.39734 78.3752 9.37189C78.3059 9.34644 78.2425 9.30724 78.1888 9.25666C78.1351 9.20608 78.0921 9.14515 78.0625 9.07755C78.0329 9.00994 78.0173 8.93706 78.0166 8.86327ZM78.1485 10.1948H79.0342V14.6977H78.1485V10.1948Z" fill="white"/>
<path d="M82.6875 12.4443C82.6875 11.0215 83.4189 10.1201 84.5566 10.1201C84.838 10.1071 85.1173 10.1746 85.3619 10.3144C85.6064 10.4543 85.8061 10.6609 85.9375 10.9101H86.0039V8.437H86.8926V14.6977H86.041V13.9863H85.9707C85.8291 14.2338 85.6225 14.4378 85.3732 14.5763C85.124 14.7148 84.8416 14.7824 84.5566 14.7719C83.4111 14.772 82.6875 13.8706 82.6875 12.4443ZM83.6055 12.4443C83.6055 13.3994 84.0557 13.9741 84.8086 13.9741C85.5576 13.9741 86.0205 13.3911 86.0205 12.4482C86.0205 11.5098 85.5528 10.9185 84.8086 10.9185C84.0606 10.9185 83.6055 11.4971 83.6055 12.4443Z" fill="white"/>
<path d="M92.1589 13.4819C92.0381 13.8935 91.7765 14.2494 91.4198 14.4876C91.0631 14.7257 90.6341 14.8309 90.2077 14.7847C89.911 14.7925 89.6162 14.7357 89.3437 14.6181C89.0712 14.5006 88.8275 14.3252 88.6296 14.104C88.4317 13.8829 88.2843 13.6213 88.1976 13.3375C88.1109 13.0537 88.087 12.7544 88.1276 12.4604C88.0881 12.1655 88.1124 11.8656 88.1989 11.5809C88.2854 11.2963 88.432 11.0335 88.6289 10.8104C88.8258 10.5874 89.0683 10.4092 89.34 10.288C89.6117 10.1668 89.9063 10.1054 90.2038 10.1079C91.4567 10.1079 92.2126 10.9639 92.2126 12.3779V12.688H89.0329V12.7378C89.019 12.903 89.0397 13.0694 89.0939 13.2261C89.148 13.3829 89.2343 13.5266 89.3472 13.648C89.4601 13.7695 89.5971 13.866 89.7495 13.9314C89.9019 13.9968 90.0663 14.0296 90.2321 14.0278C90.4447 14.0533 90.66 14.015 90.8508 13.9178C91.0416 13.8206 91.1991 13.6689 91.3034 13.4819L92.1589 13.4819ZM89.0329 12.0308H91.3073C91.3185 11.8796 91.2979 11.7278 91.247 11.5851C91.196 11.4424 91.1158 11.3119 91.0114 11.2021C90.907 11.0922 90.7808 11.0054 90.6409 10.9472C90.5009 10.889 90.3504 10.8608 90.1989 10.8643C90.0452 10.8623 89.8926 10.8912 89.7503 10.9491C89.6079 11.0071 89.4786 11.0929 89.3699 11.2016C89.2612 11.3104 89.1754 11.4397 89.1176 11.5821C89.0597 11.7245 89.0309 11.8771 89.0329 12.0308Z" fill="white"/>
<path d="M100.053 12.4443C100.053 13.875 99.3291 14.772 98.1914 14.772C97.9125 14.7909 97.634 14.7298 97.3887 14.5958C97.1434 14.4618 96.9414 14.2605 96.8066 14.0156H96.7363V16.1948H95.8477V10.1948H96.7031V10.939H96.7695C96.9068 10.6854 97.1116 10.4748 97.3611 10.3303C97.6107 10.1858 97.8953 10.1131 98.1836 10.1201C99.3291 10.1201 100.053 11.0132 100.053 12.4443ZM99.1387 12.4443C99.1387 11.4932 98.6885 10.9185 97.9356 10.9185C97.1876 10.9185 96.7197 11.5054 96.7197 12.4482C96.7197 13.3867 97.1875 13.9741 97.9316 13.9741C98.6885 13.9741 99.1387 13.3994 99.1387 12.4443Z" fill="white"/>
<path d="M105.053 13.4819C104.933 13.8935 104.671 14.2494 104.314 14.4876C103.958 14.7257 103.529 14.8309 103.102 14.7847C102.806 14.7925 102.511 14.7357 102.238 14.6181C101.966 14.5006 101.722 14.3252 101.524 14.104C101.326 13.8829 101.179 13.6213 101.092 13.3375C101.005 13.0537 100.982 12.7544 101.022 12.4604C100.983 12.1655 101.007 11.8656 101.093 11.5809C101.18 11.2963 101.327 11.0335 101.523 10.8104C101.72 10.5874 101.963 10.4092 102.235 10.288C102.506 10.1668 102.801 10.1054 103.098 10.1079C104.351 10.1079 105.107 10.9639 105.107 12.3779V12.688H101.927V12.7378C101.913 12.903 101.934 13.0694 101.988 13.2261C102.043 13.3829 102.129 13.5266 102.242 13.648C102.355 13.7695 102.492 13.866 102.644 13.9314C102.796 13.9968 102.961 14.0296 103.127 14.0278C103.339 14.0533 103.555 14.015 103.745 13.9178C103.936 13.8206 104.094 13.6689 104.198 13.4819L105.053 13.4819ZM101.927 12.0308H104.202C104.213 11.8796 104.192 11.7278 104.142 11.5851C104.091 11.4424 104.01 11.3119 103.906 11.2021C103.802 11.0922 103.675 11.0054 103.535 10.9472C103.395 10.889 103.245 10.8608 103.093 10.8643C102.94 10.8623 102.787 10.8912 102.645 10.9491C102.502 11.0071 102.373 11.0929 102.264 11.2016C102.156 11.3104 102.07 11.4397 102.012 11.5821C101.954 11.7245 101.925 11.8771 101.927 12.0308Z" fill="white"/>
</g>
<defs>
<clipPath id="clip0_924_50864">
<rect width="119.664" height="40" fill="white"/>
</clipPath>
</defs>
</svg>
