<svg width="120" height="40" viewBox="0 0 120 40" fill="none" xmlns="http://www.w3.org/2000/svg">
<g clip-path="url(#clip0_924_50796)">
<path d="M110.135 0.00013H9.53468C9.16798 0.00013 8.80568 0.00013 8.43995 0.00213C8.1338 0.00413 7.83009 0.00994 7.521 0.01483C6.84951 0.0227318 6.17961 0.0818063 5.5171 0.19154C4.85552 0.303663 4.21467 0.515046 3.61622 0.81854C3.0185 1.1246 2.47235 1.5223 1.99757 1.9972C1.5203 2.47077 1.12246 3.01815 0.81935 3.61829C0.5154 4.21724 0.304641 4.85907 0.19435 5.52161C0.0830109 6.18332 0.0230984 6.85265 0.01515 7.52361C0.00587 7.83021 0.00489 8.13783 0 8.44447V31.5587C0.00489 31.8692 0.00587 32.17 0.01515 32.4806C0.0231008 33.1516 0.0830134 33.8209 0.19435 34.4825C0.304336 35.1455 0.515108 35.7877 0.81935 36.3868C1.12233 36.985 1.52022 37.5302 1.99757 38.0011C2.47054 38.4781 3.01705 38.8761 3.61622 39.1798C4.21467 39.4841 4.85545 39.6968 5.5171 39.8106C6.17972 39.9195 6.84956 39.9786 7.521 39.9874C7.83009 39.9942 8.1338 39.9981 8.43995 39.9981C8.80567 40.0001 9.168 40.0001 9.53468 40.0001H110.135C110.494 40.0001 110.859 40.0001 111.219 39.9981C111.523 39.9981 111.836 39.9942 112.141 39.9874C112.811 39.9791 113.479 39.92 114.141 39.8106C114.804 39.696 115.448 39.4834 116.049 39.1798C116.647 38.8759 117.193 38.478 117.666 38.0011C118.142 37.5284 118.541 36.9836 118.848 36.3868C119.15 35.7872 119.358 35.1451 119.467 34.4825C119.578 33.8208 119.64 33.1516 119.652 32.4806C119.656 32.17 119.656 31.8692 119.656 31.5587C119.664 31.1954 119.664 30.8341 119.664 30.4649V9.53626C119.664 9.17005 119.664 8.80677 119.656 8.44447C119.656 8.13783 119.656 7.83021 119.652 7.52357C119.64 6.85255 119.578 6.18337 119.467 5.52157C119.358 4.85941 119.149 4.21763 118.848 3.61825C118.23 2.41533 117.252 1.43616 116.049 0.81845C115.448 0.515697 114.804 0.30437 114.141 0.19145C113.48 0.0812328 112.811 0.0221378 112.141 0.01469C111.836 0.00981 111.523 0.00395 111.219 0.002C110.859 0 110.494 0.00013 110.135 0.00013Z" fill="#A6A6A6"/>
<path d="M8.44487 39.125C8.14019 39.125 7.84287 39.1211 7.54058 39.1143C6.91436 39.1061 6.2896 39.0516 5.67144 38.9512C5.09503 38.8519 4.53664 38.6673 4.0147 38.4033C3.49754 38.1415 3.02585 37.7983 2.6177 37.3867C2.20364 36.98 1.85891 36.5082 1.59719 35.9902C1.33258 35.4688 1.14945 34.9099 1.05419 34.333C0.951311 33.7131 0.895651 33.0863 0.887687 32.458C0.881347 32.2471 0.873047 31.5449 0.873047 31.5449V8.44434C0.873047 8.44434 0.881887 7.75293 0.887737 7.5498C0.895363 6.92248 0.950699 6.29665 1.05327 5.67773C1.14871 5.09925 1.33197 4.53875 1.59673 4.01563C1.85749 3.49794 2.2003 3.02586 2.61187 2.61768C3.02297 2.20562 3.49617 1.8606 4.01421 1.59521C4.53495 1.33209 5.09228 1.14873 5.66753 1.05127C6.28772 0.949836 6.91465 0.894996 7.54304 0.88721L8.44536 0.875H111.214L112.127 0.8877C112.75 0.895099 113.371 0.94945 113.985 1.05029C114.566 1.14898 115.13 1.33362 115.656 1.59814C116.694 2.13299 117.539 2.97916 118.071 4.01807C118.332 4.53758 118.512 5.09351 118.607 5.66699C118.71 6.29099 118.768 6.92174 118.78 7.5542C118.783 7.8374 118.783 8.1416 118.783 8.44434C118.791 8.81934 118.791 9.17627 118.791 9.53613V30.4648C118.791 30.8281 118.791 31.1826 118.783 31.54C118.783 31.8652 118.783 32.1631 118.779 32.4697C118.768 33.0909 118.711 33.7104 118.608 34.3232C118.515 34.9043 118.333 35.4675 118.068 35.9932C117.805 36.5056 117.462 36.9733 117.053 37.3789C116.644 37.7927 116.172 38.1379 115.653 38.4014C115.128 38.6674 114.566 38.8527 113.985 38.9512C113.367 39.0522 112.742 39.1067 112.116 39.1143C111.823 39.1211 111.517 39.125 111.219 39.125L110.135 39.127L8.44487 39.125Z" fill="black"/>
<path d="M24.769 20.3007C24.7797 19.466 25.0014 18.6476 25.4135 17.9217C25.8255 17.1957 26.4145 16.5858 27.1256 16.1486C26.6738 15.5035 26.0779 14.9725 25.385 14.598C24.6922 14.2234 23.9216 14.0156 23.1344 13.9909C21.4552 13.8147 19.8272 14.9958 18.9715 14.9958C18.0992 14.9958 16.7817 14.0084 15.363 14.0376C14.4453 14.0673 13.551 14.3341 12.7671 14.8122C11.9832 15.2902 11.3365 15.9632 10.8901 16.7655C8.95607 20.1139 10.3987 25.035 12.2513 27.7416C13.1782 29.0669 14.2615 30.5474 15.6789 30.4949C17.066 30.4374 17.584 29.6104 19.2583 29.6104C20.9171 29.6104 21.4031 30.4949 22.8493 30.4615C24.3377 30.4373 25.2754 29.1303 26.1698 27.7924C26.8358 26.848 27.3483 25.8043 27.6882 24.6999C26.8235 24.3341 26.0856 23.7219 25.5665 22.9396C25.0474 22.1574 24.77 21.2395 24.769 20.3007Z" fill="white"/>
<path d="M22.0376 12.2109C22.8491 11.2367 23.2489 9.9845 23.1521 8.72027C21.9123 8.85049 20.767 9.44305 19.9445 10.3799C19.5424 10.8375 19.2344 11.37 19.0381 11.9467C18.8419 12.5235 18.7612 13.1333 18.8008 13.7413C19.4209 13.7477 20.0344 13.6132 20.5951 13.3482C21.1558 13.0831 21.649 12.6942 22.0376 12.2109Z" fill="white"/>
<path d="M42.3027 27.1397H37.5693L36.4326 30.4961H34.4277L38.9111 18.0781H40.9941L45.4775 30.4961H43.4385L42.3027 27.1397ZM38.0596 25.5908H41.8116L39.962 20.1436H39.9102L38.0596 25.5908Z" fill="white"/>
<path d="M55.1602 25.9697C55.1602 28.7832 53.6543 30.5908 51.3819 30.5908C50.8062 30.6209 50.2337 30.4883 49.7299 30.2082C49.2261 29.928 48.8114 29.5117 48.5332 29.0068H48.4902V33.4912H46.6318V21.4424H48.4307V22.9482H48.4649C48.7558 22.4458 49.1776 22.0316 49.6852 21.7497C50.1928 21.4679 50.7674 21.3289 51.3477 21.3476C53.6455 21.3477 55.1602 23.1641 55.1602 25.9697ZM53.25 25.9697C53.25 24.1367 52.3028 22.9316 50.8574 22.9316C49.4375 22.9316 48.4824 24.1621 48.4824 25.9697C48.4824 27.7939 49.4375 29.0156 50.8574 29.0156C52.3028 29.0156 53.25 27.8193 53.25 25.9697Z" fill="white"/>
<path d="M65.125 25.9697C65.125 28.7832 63.6192 30.5908 61.3467 30.5908C60.7711 30.6209 60.1986 30.4883 59.6948 30.2082C59.191 29.9281 58.7762 29.5117 58.4981 29.0068H58.4551V33.4912H56.5967V21.4424H58.3955V22.9482H58.4297C58.7206 22.4458 59.1424 22.0316 59.65 21.7497C60.1576 21.4679 60.7322 21.3289 61.3125 21.3477C63.6104 21.3477 65.125 23.1641 65.125 25.9697ZM63.2149 25.9697C63.2149 24.1367 62.2676 22.9316 60.8223 22.9316C59.4024 22.9316 58.4473 24.1621 58.4473 25.9697C58.4473 27.794 59.4024 29.0156 60.8223 29.0156C62.2676 29.0156 63.2149 27.8193 63.2149 25.9697Z" fill="white"/>
<path d="M71.711 27.0361C71.8487 28.2676 73.045 29.0761 74.6797 29.0761C76.2461 29.0761 77.3731 28.2675 77.3731 27.1572C77.3731 26.1933 76.6934 25.6162 75.084 25.2207L73.4746 24.833C71.1944 24.2822 70.1358 23.2158 70.1358 21.4853C70.1358 19.3427 72.003 17.871 74.6543 17.871C77.2783 17.871 79.0772 19.3427 79.1377 21.4853H77.2617C77.1494 20.246 76.125 19.498 74.6279 19.498C73.1309 19.498 72.1065 20.2548 72.1065 21.3564C72.1065 22.2343 72.7608 22.7509 74.3613 23.1464L75.7295 23.4823C78.2773 24.0849 79.3359 25.1083 79.3359 26.9247C79.3359 29.248 77.4854 30.703 74.542 30.703C71.7881 30.703 69.9287 29.2821 69.8086 27.036L71.711 27.0361Z" fill="white"/>
<path d="M83.3467 19.2998V21.4424H85.0684V22.9141H83.3467V27.9053C83.3467 28.6807 83.6914 29.042 84.4482 29.042C84.6526 29.0384 84.8567 29.0241 85.0596 28.999V30.4619C84.7193 30.5255 84.3734 30.5543 84.0273 30.5478C82.1943 30.5478 81.4795 29.8593 81.4795 28.1035V22.9141H80.1631V21.4424H81.4795V19.2998H83.3467Z" fill="white"/>
<path d="M86.0654 25.9697C86.0654 23.1211 87.7432 21.3311 90.3594 21.3311C92.9844 21.3311 94.6543 23.1211 94.6543 25.9697C94.6543 28.8262 92.9932 30.6084 90.3594 30.6084C87.7265 30.6084 86.0654 28.8262 86.0654 25.9697ZM92.7607 25.9697C92.7607 24.0156 91.8652 22.8623 90.3594 22.8623C88.8535 22.8623 87.959 24.0244 87.959 25.9697C87.959 27.9316 88.8535 29.0762 90.3594 29.0762C91.8652 29.0762 92.7607 27.9316 92.7607 25.9697Z" fill="white"/>
<path d="M96.1865 21.4424H97.959V22.9834H98.002C98.1219 22.5021 98.4039 22.0768 98.8005 21.7789C99.197 21.481 99.6841 21.3287 100.18 21.3476C100.394 21.3469 100.607 21.3702 100.816 21.417V23.1553C100.546 23.0726 100.264 23.0347 99.9814 23.043C99.7115 23.032 99.4423 23.0796 99.1925 23.1825C98.9426 23.2854 98.718 23.4411 98.534 23.639C98.3501 23.8369 98.2111 24.0723 98.1267 24.3289C98.0422 24.5856 98.0143 24.8575 98.0449 25.126V30.4961H96.1865L96.1865 21.4424Z" fill="white"/>
<path d="M109.385 27.8369C109.135 29.4805 107.534 30.6084 105.486 30.6084C102.853 30.6084 101.218 28.8437 101.218 26.0127C101.218 23.1729 102.861 21.3311 105.408 21.3311C107.913 21.3311 109.488 23.0518 109.488 25.7969V26.4336H103.094V26.5459C103.064 26.8791 103.106 27.2148 103.216 27.5306C103.326 27.8464 103.502 28.1352 103.733 28.3778C103.963 28.6203 104.242 28.8111 104.552 28.9374C104.862 29.0637 105.195 29.1226 105.529 29.1103C105.968 29.1515 106.409 29.0498 106.786 28.8203C107.163 28.5909 107.455 28.246 107.62 27.8369L109.385 27.8369ZM103.103 25.1348H107.629C107.646 24.8352 107.6 24.5354 107.495 24.2541C107.391 23.9729 107.229 23.7164 107.021 23.5006C106.812 23.2849 106.561 23.1145 106.284 23.0003C106.006 22.8861 105.708 22.8305 105.408 22.8369C105.106 22.8351 104.806 22.8933 104.526 23.008C104.245 23.1227 103.991 23.2918 103.777 23.5054C103.562 23.7191 103.392 23.973 103.277 24.2527C103.161 24.5323 103.102 24.8321 103.103 25.1348Z" fill="white"/>
<path d="M36.7383 11.2534H37.5361C37.6735 11.2705 37.8129 11.259 37.9455 11.2195C38.0782 11.1801 38.2013 11.1136 38.307 11.0242C38.4127 10.9349 38.4987 10.8246 38.5596 10.7003C38.6206 10.5761 38.6552 10.4405 38.6611 10.3023C38.6611 9.75196 38.2471 9.39649 37.5449 9.39649C37.4042 9.37683 37.261 9.38556 37.1237 9.42217C36.9864 9.45878 36.8579 9.52252 36.7456 9.60964C36.6334 9.69675 36.5397 9.80547 36.4702 9.92938C36.4007 10.0533 36.3567 10.1899 36.3408 10.3311H35.4648C35.4799 10.0748 35.5476 9.82431 35.6636 9.5953C35.7797 9.36629 35.9417 9.16362 36.1394 8.99992C36.3372 8.83621 36.5666 8.71498 36.8133 8.64375C37.0599 8.57253 37.3186 8.55285 37.5732 8.58594C38.748 8.58594 39.5752 9.24365 39.5752 10.1904C39.578 10.5076 39.4719 10.8161 39.2746 11.0645C39.0773 11.3129 38.8008 11.4861 38.4912 11.5552V11.6255C38.8582 11.6418 39.2038 11.8027 39.4525 12.0731C39.7012 12.3434 39.8328 12.7013 39.8184 13.0684C39.7912 13.3323 39.7116 13.5881 39.5843 13.8208C39.457 14.0536 39.2845 14.2585 39.077 14.4238C38.8694 14.589 38.631 14.7111 38.3756 14.783C38.1202 14.8548 37.8531 14.875 37.5898 14.8423C37.326 14.8783 37.0577 14.8607 36.8008 14.7908C36.5439 14.7208 36.3037 14.5999 36.0946 14.4351C35.8854 14.2703 35.7116 14.0651 35.5834 13.8317C35.4553 13.5984 35.3754 13.3416 35.3486 13.0767H36.2383C36.292 13.6475 36.8164 14.0157 37.5898 14.0157C38.3633 14.0157 38.8682 13.6021 38.8682 13.0191C38.8682 12.4278 38.3926 12.0635 37.5615 12.0635H36.7383V11.2534Z" fill="white"/>
<path d="M40.8291 13.4243C40.8291 12.6138 41.4336 12.1465 42.5039 12.0801L43.7236 12.0098V11.6211C43.7236 11.1455 43.4102 10.877 42.8018 10.877C42.3057 10.877 41.9629 11.0591 41.8633 11.3774H41.0029C41.0937 10.604 41.8223 10.1079 42.8438 10.1079C43.9727 10.1079 44.6094 10.6699 44.6094 11.6211V14.6978H43.7529V14.0649H43.6826C43.5399 14.2919 43.3395 14.477 43.1019 14.6012C42.8643 14.7254 42.5979 14.7843 42.3301 14.7719C42.141 14.7916 41.95 14.7714 41.7692 14.7127C41.5885 14.654 41.422 14.5581 41.2806 14.4312C41.1392 14.3042 41.0259 14.149 40.9482 13.9756C40.8704 13.8022 40.8298 13.6144 40.8291 13.4243ZM43.7236 13.0395V12.6631L42.624 12.7334C42.0039 12.7749 41.7226 12.9858 41.7226 13.3828C41.7226 13.7881 42.0742 14.0239 42.5576 14.0239C42.6993 14.0383 42.8423 14.024 42.9784 13.9819C43.1144 13.9398 43.2405 13.8708 43.3493 13.7789C43.4581 13.6871 43.5473 13.5743 43.6116 13.4473C43.6759 13.3203 43.714 13.1816 43.7236 13.0395Z" fill="white"/>
<path d="M46.9678 10.9429V14.6978H46.0791V10.1948H49.044V10.9428L46.9678 10.9429Z" fill="white"/>
<path d="M54.4297 12.4443C54.4297 13.875 53.7061 14.772 52.5693 14.772C52.2903 14.791 52.0116 14.73 51.7661 14.596C51.5206 14.462 51.3185 14.2606 51.1836 14.0156H51.1133V16.1948H50.2246V10.1948H51.0801V10.939H51.1465C51.2838 10.6854 51.4886 10.4748 51.7381 10.3303C51.9877 10.1858 52.2723 10.1131 52.5606 10.1201C53.7061 10.1201 54.4297 11.0132 54.4297 12.4443ZM53.5156 12.4443C53.5156 11.4932 53.0654 10.9185 52.3125 10.9185C51.5645 10.9185 51.0967 11.5054 51.0967 12.4482C51.0967 13.3867 51.5645 13.9741 52.3086 13.9741C53.0654 13.9741 53.5156 13.3994 53.5156 12.4443Z" fill="white"/>
<path d="M55.6133 16.3106V15.5454C55.7095 15.5576 55.8064 15.5632 55.9033 15.562C56.0927 15.576 56.2805 15.5197 56.4308 15.4037C56.5811 15.2877 56.6833 15.1203 56.7178 14.9336L56.7842 14.7144L55.1543 10.1948H56.1221L57.251 13.7715H57.3213L58.4463 10.1948H59.3887L57.71 14.8838C57.3252 15.9795 56.8995 16.3311 55.9815 16.3311C55.9073 16.3311 55.6963 16.3228 55.6133 16.3106Z" fill="white"/>
<path d="M60.0811 13.4199H60.9658C61.0527 13.8169 61.4248 14.0239 61.9453 14.0239C62.5371 14.0239 62.9004 13.7632 62.9004 13.3579C62.9004 12.9238 62.5742 12.7168 61.9453 12.7168H61.2715V12.0264H61.9336C62.4707 12.0264 62.7441 11.8198 62.7441 11.4434C62.7441 11.1128 62.4795 10.8604 61.9336 10.8604C61.4365 10.8604 61.0732 11.0713 61.0156 11.4268H60.1592C60.2232 11.0183 60.445 10.6513 60.7768 10.4047C61.1086 10.158 61.524 10.0515 61.9336 10.1079C63.0039 10.1079 63.6162 10.5918 63.6162 11.3526C63.6212 11.5644 63.5533 11.7716 63.4239 11.9394C63.2945 12.1072 63.1114 12.2254 62.9053 12.2744V12.3448C63.1507 12.3764 63.376 12.4971 63.5384 12.6838C63.7007 12.8706 63.7889 13.1105 63.7861 13.3579C63.7861 14.2139 63.0576 14.7803 61.9453 14.7803C60.9619 14.7803 60.1631 14.3296 60.0811 13.4199Z" fill="white"/>
<path d="M65.0654 14.6978V10.1948H65.9463V13.292H66.0166L68.0918 10.1948H68.9727V14.6978H68.0918V11.584H68.0254L65.9463 14.6978L65.0654 14.6978Z" fill="white"/>
<path d="M73.8253 10.9429H72.4073V14.6978H71.5176V10.9429H70.0996V10.1949H73.8253V10.9429Z" fill="white"/>
<path d="M78.613 13.4819C78.4919 13.8935 78.23 14.2494 77.8732 14.4875C77.5164 14.7256 77.0873 14.8308 76.6608 14.7847C76.3641 14.7925 76.0693 14.7357 75.7968 14.6181C75.5243 14.5006 75.2807 14.3252 75.0827 14.1041C74.8848 13.8829 74.7374 13.6214 74.6507 13.3375C74.564 13.0537 74.5402 12.7544 74.5807 12.4604C74.5412 12.1656 74.5655 11.8656 74.652 11.581C74.7385 11.2963 74.8851 11.0335 75.082 10.8104C75.2789 10.5874 75.5214 10.4092 75.7931 10.288C76.0648 10.1668 76.3594 10.1054 76.6569 10.1079C77.9098 10.1079 78.6667 10.9639 78.6667 12.3779V12.688H75.487V12.7378C75.4729 12.9031 75.4936 13.0695 75.5476 13.2263C75.6017 13.3831 75.688 13.5269 75.8009 13.6484C75.9138 13.7699 76.0509 13.8664 76.2034 13.9317C76.3559 13.9971 76.5203 14.0298 76.6862 14.0278C76.8986 14.0532 77.1138 14.0149 77.3044 13.9177C77.495 13.8205 77.6524 13.6688 77.7565 13.4819L78.613 13.4819ZM75.487 12.0308H77.7604C77.7716 11.8797 77.7511 11.728 77.7002 11.5853C77.6494 11.4427 77.5692 11.3122 77.4649 11.2024C77.3606 11.0925 77.2345 11.0057 77.0947 10.9475C76.9549 10.8892 76.8044 10.8609 76.653 10.8643C76.4992 10.8622 76.3466 10.8909 76.2042 10.9488C76.0617 11.0067 75.9324 11.0925 75.8237 11.2013C75.715 11.31 75.6292 11.4395 75.5713 11.5819C75.5135 11.7244 75.4848 11.877 75.487 12.0308Z" fill="white"/>
<path d="M82.3799 10.1948H84.4102C85.291 10.1948 85.8076 10.6411 85.8076 11.3398C85.809 11.5615 85.7342 11.777 85.5957 11.9501C85.4572 12.1233 85.2635 12.2436 85.0469 12.291V12.3613C85.3099 12.3779 85.5564 12.4949 85.7356 12.6881C85.9148 12.8813 86.0129 13.1359 86.0098 13.3994C86.0098 14.185 85.4189 14.6977 84.4307 14.6977H82.3799V10.1948ZM83.2607 10.877V12.043H84.1416C84.6787 12.043 84.9356 11.8364 84.9356 11.4556C84.9356 11.1045 84.7119 10.8769 84.2402 10.8769L83.2607 10.877ZM83.2607 12.6963V14.0156H84.3145C84.8399 14.0156 85.1211 13.7837 85.1211 13.3579C85.1211 12.9072 84.8028 12.6963 84.2031 12.6963L83.2607 12.6963Z" fill="white"/>
</g>
<defs>
<clipPath id="clip0_924_50796">
<rect width="119.664" height="40" fill="white"/>
</clipPath>
</defs>
</svg>
