<svg width="135" height="40" viewBox="0 0 135 40" fill="none" xmlns="http://www.w3.org/2000/svg">
<g clip-path="url(#clip0_924_51046)">
<mask id="mask0_924_51046" style="mask-type:luminance" maskUnits="userSpaceOnUse" x="0" y="0" width="135" height="40">
<path d="M135 0H0V40H135V0Z" fill="white"/>
</mask>
<g mask="url(#mask0_924_51046)">
<path d="M130 40H4.999C2.249 40 0 37.75 0 35V5C0 2.25 2.249 0 4.999 0H130C132.75 0 135 2.25 135 5V35C135 37.75 132.75 40 130 40Z" fill="#030404"/>
<path d="M130 0H4.999C2.249 0 0 2.25 0 5V35C0 37.75 2.249 40 4.999 40H130C132.75 40 135 37.75 135 35V5C135 2.25 132.75 0 130 0ZM130 0.8C132.316 0.8 134.2 2.685 134.2 5V35C134.2 37.316 132.316 39.201 130 39.201H4.999C2.684 39.201 0.799999 37.316 0.799999 35V5C0.799999 2.685 2.684 0.8 4.999 0.8H130Z" fill="#A7A5A6"/>
<path d="M47.3756 9.791H44.4676V10.512H46.6466C46.5876 11.098 46.3526 11.559 45.9596 11.894C45.5656 12.229 45.0626 12.397 44.4676 12.397C43.8136 12.397 43.2606 12.171 42.8086 11.718C42.3646 11.257 42.1376 10.688 42.1376 10C42.1376 9.313 42.3646 8.743 42.8086 8.282C43.2606 7.83 43.8136 7.604 44.4676 7.604C44.8026 7.604 45.1216 7.662 45.4146 7.788C45.7076 7.914 45.9426 8.09 46.1266 8.316L46.6796 7.763C46.4286 7.478 46.1096 7.26 45.7166 7.101C45.3226 6.942 44.9116 6.866 44.4676 6.866C43.5956 6.866 42.8586 7.168 42.2556 7.771C41.6516 8.375 41.3506 9.12 41.3506 10C41.3506 10.88 41.6516 11.626 42.2556 12.229C42.8586 12.833 43.5956 13.134 44.4676 13.134C45.3806 13.134 46.1096 12.841 46.6716 12.246C47.1656 11.752 47.4176 11.081 47.4176 10.243C47.4176 10.101 47.4006 9.95 47.3756 9.791Z" fill="white"/>
<path d="M48.5244 7V13H52.0274V12.263H49.2954V10.361H51.7584V9.64H49.2954V7.738H52.0274V7H48.5244Z" fill="white"/>
<path d="M56.9531 7.738V7H52.8301V7.738H54.5061V13H55.2771V7.738H56.9531Z" fill="white"/>
<path d="M60.7075 7H59.9365V13H60.7075V7Z" fill="white"/>
<path d="M65.8027 7.738V7H61.6797V7.738H63.3557V13H64.1267V7.738H65.8027Z" fill="white"/>
<path d="M73.6052 7.78C73.0102 7.168 72.2812 6.866 71.4092 6.866C70.5382 6.866 69.8082 7.168 69.2132 7.771C68.6182 8.366 68.3252 9.112 68.3252 10C68.3252 10.889 68.6182 11.634 69.2132 12.229C69.8082 12.833 70.5382 13.134 71.4092 13.134C72.2722 13.134 73.0102 12.833 73.6052 12.229C74.2002 11.634 74.4932 10.889 74.4932 10C74.4932 9.12 74.2002 8.375 73.6052 7.78ZM69.7672 8.282C70.2112 7.83 70.7552 7.604 71.4092 7.604C72.0632 7.604 72.6072 7.83 73.0432 8.282C73.4872 8.727 73.7052 9.305 73.7052 10C73.7052 10.696 73.4872 11.274 73.0432 11.718C72.6072 12.171 72.0632 12.397 71.4092 12.397C70.7552 12.397 70.2112 12.171 69.7672 11.718C69.3312 11.266 69.1132 10.696 69.1132 10C69.1132 9.305 69.3312 8.735 69.7672 8.282Z" fill="white"/>
<path d="M76.3452 9.263L76.3122 8.106H76.3452L79.3962 13H80.2002V7H79.4292V10.512L79.4632 11.668H79.4292L76.5132 7H75.5752V13H76.3452V9.263Z" fill="white"/>
<path fill-rule="evenodd" clip-rule="evenodd" d="M47.3756 9.791H44.4676V10.512H46.6466C46.5876 11.098 46.3526 11.559 45.9596 11.894C45.5656 12.229 45.0626 12.397 44.4676 12.397C43.8136 12.397 43.2606 12.171 42.8086 11.718C42.3646 11.257 42.1376 10.688 42.1376 10C42.1376 9.313 42.3646 8.743 42.8086 8.282C43.2606 7.83 43.8136 7.604 44.4676 7.604C44.8026 7.604 45.1216 7.662 45.4146 7.788C45.7076 7.914 45.9426 8.09 46.1266 8.316L46.6796 7.763C46.4286 7.478 46.1096 7.26 45.7166 7.101C45.3226 6.942 44.9116 6.866 44.4676 6.866C43.5956 6.866 42.8586 7.168 42.2556 7.771C41.6516 8.375 41.3506 9.12 41.3506 10C41.3506 10.88 41.6516 11.626 42.2556 12.229C42.8586 12.833 43.5956 13.134 44.4676 13.134C45.3806 13.134 46.1096 12.841 46.6716 12.246C47.1656 11.752 47.4176 11.081 47.4176 10.243C47.4176 10.101 47.4006 9.95 47.3756 9.791ZM48.5236 7V13H52.0266V12.263H49.2946V10.361H51.7576V9.64H49.2946V7.738H52.0266V7H48.5236ZM56.9526 7.738V7H52.8306V7.738H54.5066V13H55.2766V7.738H56.9526ZM60.7076 7H59.9366V13H60.7076V7ZM65.8026 7.738V7H61.6796V7.738H63.3556V13H64.1266V7.738H65.8026ZM73.6046 7.78C73.0096 7.168 72.2806 6.866 71.4086 6.866C70.5366 6.866 69.8076 7.168 69.2126 7.771C68.6176 8.366 68.3246 9.112 68.3246 10C68.3246 10.889 68.6176 11.634 69.2126 12.229C69.8076 12.833 70.5366 13.134 71.4086 13.134C72.2716 13.134 73.0096 12.833 73.6046 12.229C74.1996 11.634 74.4926 10.889 74.4926 10C74.4926 9.12 74.1996 8.375 73.6046 7.78ZM69.7666 8.282C70.2106 7.83 70.7546 7.604 71.4086 7.604C72.0626 7.604 72.6066 7.83 73.0426 8.282C73.4866 8.727 73.7046 9.305 73.7046 10C73.7046 10.696 73.4866 11.274 73.0426 11.718C72.6066 12.171 72.0626 12.397 71.4086 12.397C70.7546 12.397 70.2106 12.171 69.7666 11.718C69.3306 11.266 69.1126 10.696 69.1126 10C69.1126 9.305 69.3306 8.735 69.7666 8.282ZM76.3456 9.263L76.3116 8.106H76.3456L79.3956 13H80.1996V7H79.4286V10.512L79.4626 11.668H79.4286L76.5126 7H75.5746V13H76.3456V9.263Z" stroke="white" stroke-width="0.2" stroke-miterlimit="2"/>
<path d="M106.936 30.001H108.802V17.499H106.936V30.001ZM123.743 22.002L121.604 27.422H121.54L119.32 22.002H117.31L120.64 29.578L118.741 33.791H120.687L125.818 22.002H123.743ZM113.16 28.581C112.55 28.581 111.697 28.275 111.697 27.519C111.697 26.554 112.759 26.184 113.675 26.184C114.495 26.184 114.882 26.361 115.38 26.602C115.235 27.76 114.238 28.581 113.16 28.581ZM113.386 21.729C112.035 21.729 110.636 22.324 110.057 23.643L111.713 24.334C112.067 23.643 112.726 23.418 113.418 23.418C114.383 23.418 115.364 23.997 115.38 25.026V25.155C115.042 24.962 114.318 24.672 113.434 24.672C111.648 24.672 109.831 25.653 109.831 27.487C109.831 29.16 111.295 30.237 112.935 30.237C114.189 30.237 114.882 29.674 115.315 29.015H115.38V29.98H117.182V25.187C117.182 22.967 115.524 21.729 113.386 21.729ZM101.854 23.524H99.2V19.239H101.854C103.249 19.239 104.041 20.394 104.041 21.382C104.041 22.351 103.249 23.524 101.854 23.524ZM101.806 17.499H97.334V30.001H99.2V25.264H101.806C103.874 25.264 105.907 23.767 105.907 21.382C105.907 18.997 103.874 17.499 101.806 17.499ZM77.424 28.583C76.135 28.583 75.056 27.503 75.056 26.022C75.056 24.523 76.135 23.428 77.424 23.428C78.697 23.428 79.696 24.523 79.696 26.022C79.696 27.503 78.697 28.583 77.424 28.583ZM79.567 22.703H79.502C79.083 22.203 78.278 21.752 77.263 21.752C75.136 21.752 73.187 23.621 73.187 26.022C73.187 28.406 75.136 30.258 77.263 30.258C78.278 30.258 79.083 29.807 79.502 29.292H79.567V29.904C79.567 31.531 78.697 32.401 77.295 32.401C76.152 32.401 75.443 31.58 75.153 30.887L73.526 31.563C73.993 32.691 75.233 34.077 77.295 34.077C79.487 34.077 81.339 32.788 81.339 29.646V22.01H79.567V22.703ZM82.628 30.001H84.497V17.499H82.628V30.001ZM87.251 25.876C87.204 24.233 88.525 23.396 89.475 23.396C90.216 23.396 90.844 23.766 91.054 24.297L87.251 25.876ZM93.051 24.459C92.697 23.508 91.618 21.752 89.411 21.752C87.219 21.752 85.399 23.476 85.399 26.005C85.399 28.39 87.204 30.258 89.62 30.258C91.569 30.258 92.697 29.066 93.165 28.374L91.714 27.407C91.231 28.116 90.571 28.583 89.62 28.583C88.669 28.583 87.993 28.148 87.558 27.294L93.245 24.942L93.051 24.459ZM47.743 23.057V24.861H52.061C51.932 25.876 51.594 26.617 51.078 27.133C50.45 27.761 49.467 28.454 47.743 28.454C45.085 28.454 43.007 26.312 43.007 23.653C43.007 20.995 45.085 18.852 47.743 18.852C49.177 18.852 50.224 19.416 50.998 20.141L52.27 18.868C51.191 17.837 49.757 17.048 47.743 17.048C44.102 17.048 41.041 20.012 41.041 23.653C41.041 27.294 44.102 30.258 47.743 30.258C49.708 30.258 51.191 29.614 52.351 28.406C53.543 27.213 53.914 25.538 53.914 24.185C53.914 23.766 53.881 23.379 53.817 23.057H47.743ZM58.822 28.583C57.533 28.583 56.421 27.52 56.421 26.005C56.421 24.475 57.533 23.428 58.822 23.428C60.111 23.428 61.223 24.475 61.223 26.005C61.223 27.52 60.111 28.583 58.822 28.583ZM58.822 21.752C56.47 21.752 54.553 23.541 54.553 26.005C54.553 28.454 56.47 30.258 58.822 30.258C61.174 30.258 63.091 28.454 63.091 26.005C63.091 23.541 61.174 21.752 58.822 21.752ZM68.135 28.583C66.847 28.583 65.735 27.52 65.735 26.005C65.735 24.475 66.847 23.428 68.135 23.428C69.424 23.428 70.536 24.475 70.536 26.005C70.536 27.52 69.424 28.583 68.135 28.583ZM68.135 21.752C65.783 21.752 63.866 23.541 63.866 26.005C63.866 28.454 65.783 30.258 68.135 30.258C70.488 30.258 72.405 28.454 72.405 26.005C72.405 23.541 70.488 21.752 68.135 21.752Z" fill="white"/>
<path d="M20.7173 19.425L10.0703 30.725C10.0713 30.727 10.0713 30.729 10.0723 30.731C10.3983 31.959 11.5193 32.862 12.8493 32.862C13.3813 32.862 13.8803 32.718 14.3083 32.466L14.3423 32.446L26.3263 25.531L20.7173 19.425Z" fill="#EB4335"/>
<path d="M31.4876 17.501L31.4776 17.494L26.3036 14.494L20.4746 19.681L26.3236 25.529L31.4706 22.56C32.3726 22.073 32.9846 21.122 32.9846 20.025C32.9846 18.936 32.3806 17.989 31.4876 17.501Z" fill="#FABC13"/>
<path d="M10.0697 9.278C10.0057 9.514 9.97168 9.761 9.97168 10.018V29.985C9.97168 30.242 10.0047 30.49 10.0697 30.725L21.0827 19.714L10.0697 9.278Z" fill="#547DBF"/>
<path d="M20.7953 20.001L26.3063 14.492L14.3353 7.552C13.9003 7.291 13.3933 7.141 12.8493 7.141C11.5193 7.141 10.3973 8.046 10.0703 9.275V9.278L20.7953 20.001Z" fill="#30A851"/>
</g>
</g>
<defs>
<clipPath id="clip0_924_51046">
<rect width="135" height="40" fill="white"/>
</clipPath>
</defs>
</svg>
