<svg width="135" height="40" viewBox="0 0 135 40" fill="none" xmlns="http://www.w3.org/2000/svg">
<g clip-path="url(#clip0_924_51047)">
<mask id="mask0_924_51047" style="mask-type:luminance" maskUnits="userSpaceOnUse" x="0" y="0" width="135" height="40">
<path d="M135 0H0V40H135V0Z" fill="white"/>
</mask>
<g mask="url(#mask0_924_51047)">
<path d="M130 39.9998H4.99982C2.24986 39.9998 0 37.7499 0 34.9998V4.99982C0 2.24986 2.24986 -0.000209808 4.99982 -0.000209808H130C132.75 -0.000209808 135 2.24986 135 4.99982V34.9998C135 37.7499 132.75 39.9998 130 39.9998Z" fill="#030404"/>
<path d="M130 0H4.99982C2.24986 0 0 2.25007 0 5.00003V35C0 37.7501 2.24986 40 4.99982 40H130C132.75 40 135 37.7501 135 35V5.00003C135 2.25007 132.75 0 130 0ZM130 0.799971C132.316 0.799971 134.2 2.68412 134.2 5.00003V35C134.2 37.3161 132.316 39.2 130 39.2H4.99982C2.68391 39.2 0.799971 37.3161 0.799971 35V5.00003C0.799971 2.68412 2.68391 0.799971 4.99982 0.799971H130Z" fill="#A7A5A6"/>
<path d="M106.936 29.9999H108.802V17.499H106.936V29.9999ZM123.743 22.0019L121.604 27.422H121.54L119.32 22.0019H117.31L120.639 29.577L118.741 33.791H120.687L125.818 22.0019H123.743ZM113.161 28.5799C112.549 28.5799 111.697 28.274 111.697 27.5179C111.697 26.5531 112.758 26.184 113.675 26.184C114.495 26.184 114.881 26.361 115.38 26.602C115.235 27.7599 114.238 28.5799 113.161 28.5799ZM113.386 21.729C112.035 21.729 110.635 22.3239 110.056 23.642L111.713 24.3339C112.067 23.642 112.726 23.4169 113.418 23.4169C114.383 23.4169 115.364 23.996 115.38 25.025V25.1539C115.042 24.9611 114.318 24.672 113.434 24.672C111.649 24.672 109.831 25.653 109.831 27.4859C109.831 29.159 111.295 30.2361 112.935 30.2361C114.19 30.2361 114.881 29.6739 115.316 29.014H115.38V29.9791H117.181V25.1859C117.181 22.967 115.525 21.729 113.386 21.729ZM101.854 23.5239H99.1999V19.238H101.854C103.249 19.238 104.041 20.394 104.041 21.381C104.041 22.3501 103.249 23.5239 101.854 23.5239ZM101.806 17.499H97.335V29.9999H99.1999V25.2641H101.806C103.874 25.2641 105.907 23.7659 105.907 21.381C105.907 18.996 103.874 17.499 101.806 17.499ZM77.425 28.582C76.136 28.582 75.057 27.5031 75.057 26.021C75.057 24.523 76.136 23.4269 77.425 23.4269C78.6981 23.4269 79.6959 24.523 79.6959 26.021C79.6959 27.5031 78.6981 28.582 77.425 28.582ZM79.567 22.702H79.5031C79.0841 22.2029 78.2791 21.7509 77.2641 21.7509C75.1369 21.7509 73.1879 23.62 73.1879 26.021C73.1879 28.405 75.1369 30.258 77.2641 30.258C78.2791 30.258 79.0841 29.8071 79.5031 29.2911H79.567V29.903C79.567 31.5309 78.6981 32.4001 77.296 32.4001C76.1519 32.4001 75.443 31.579 75.153 30.886L73.5261 31.5631C73.9929 32.691 75.234 34.0761 77.296 34.0761C79.487 34.0761 81.34 32.7871 81.34 29.6459V22.009H79.567V22.702ZM82.6279 29.9999H84.497V17.498H82.6279V29.9999ZM87.252 25.876C87.2039 24.2319 88.5251 23.395 89.4749 23.395C90.217 23.395 90.845 23.7651 91.0539 24.2969L87.252 25.876ZM93.052 24.458C92.6969 23.507 91.618 21.7509 89.411 21.7509C87.22 21.7509 85.4 23.475 85.4 26.0049C85.4 28.3889 87.2039 30.258 89.6199 30.258C91.5699 30.258 92.6969 29.066 93.1651 28.373L91.7149 27.4061C91.2309 28.115 90.571 28.582 89.6199 28.582C88.6699 28.582 87.993 28.1469 87.5579 27.2941L93.2451 24.941L93.052 24.458ZM47.7439 23.057V24.861H52.061C51.9319 25.876 51.594 26.617 51.0788 27.1319C50.45 27.761 49.467 28.4531 47.7439 28.4531C45.0849 28.4531 43.0068 26.3111 43.0068 23.652C43.0068 20.994 45.0849 18.852 47.7439 18.852C49.178 18.852 50.2249 19.415 50.9979 20.1399L52.2708 18.8681C51.1908 17.837 49.7579 17.047 47.7439 17.047C44.1029 17.047 41.042 20.012 41.042 23.652C41.042 27.2941 44.1029 30.258 47.7439 30.258C49.709 30.258 51.1908 29.6129 52.3509 28.405C53.5429 27.213 53.914 25.538 53.914 24.1841C53.914 23.7651 53.8816 23.3791 53.8167 23.057H47.7439ZM58.8219 28.582C57.534 28.582 56.422 27.519 56.422 26.0049C56.422 24.4739 57.534 23.4269 58.8219 23.4269C60.1109 23.4269 61.2229 24.4739 61.2229 26.0049C61.2229 27.519 60.1109 28.582 58.8219 28.582ZM58.8219 21.7509C56.4698 21.7509 54.5527 23.54 54.5527 26.0049C54.5527 28.4531 56.4698 30.258 58.8219 30.258C61.174 30.258 63.092 28.4531 63.092 26.0049C63.092 23.54 61.174 21.7509 58.8219 21.7509ZM68.1359 28.582C66.8469 28.582 65.7349 27.519 65.7349 26.0049C65.7349 24.4739 66.8469 23.4269 68.1359 23.4269C69.4251 23.4269 70.536 24.4739 70.536 26.0049C70.536 27.519 69.4251 28.582 68.1359 28.582ZM68.1359 21.7509C65.784 21.7509 63.8669 23.54 63.8669 26.0049C63.8669 28.4531 65.784 30.258 68.1359 30.258C70.4879 30.258 72.4049 28.4531 72.4049 26.0049C72.4049 23.54 70.4879 21.7509 68.1359 21.7509Z" fill="white"/>
<path d="M20.7174 19.424L10.0703 30.7241C10.0714 30.7259 10.0714 30.7291 10.0724 30.731C10.3995 31.9581 11.5194 32.8611 12.8493 32.8611C13.3814 32.8611 13.8804 32.7171 14.3084 32.4651L14.3425 32.445L26.3266 25.5301L20.7174 19.424Z" fill="#EB4335"/>
<path d="M31.4886 17.4999L31.4787 17.4928L26.3046 14.4939L20.4756 19.6808L26.3255 25.5288L31.4716 22.5599C32.3736 22.0717 32.9867 21.1209 32.9867 20.0248C32.9867 18.9347 32.3826 17.9887 31.4886 17.4999Z" fill="#FABC13"/>
<path d="M10.0697 9.27699C10.0057 9.51313 9.97168 9.76098 9.97168 10.017V29.9851C9.97168 30.2411 10.0057 30.489 10.0707 30.7241L21.0829 19.713L10.0697 9.27699Z" fill="#547DBF"/>
<path d="M20.7954 20.0009L26.3055 14.4921L14.3354 7.55187C13.9003 7.29106 13.3923 7.14101 12.8494 7.14101C11.5194 7.14101 10.3974 8.04589 10.0704 9.27406C10.0704 9.2749 10.0693 9.27594 10.0693 9.27699L20.7954 20.0009Z" fill="#30A851"/>
</g>
<path d="M43.0671 12.8461C42.5712 12.5621 42.181 12.1707 41.897 11.6717C41.6126 11.1731 41.4707 10.6222 41.4707 10.0187C41.4707 9.41554 41.6126 8.86467 41.897 8.36584C42.181 7.86701 42.5712 7.47538 43.0671 7.19138C43.563 6.90696 44.1124 6.76506 44.7157 6.76506C45.6497 6.76506 46.4179 7.10423 47.0212 7.78279L46.3514 8.43543C46.1368 8.18006 45.8975 7.98884 45.6336 7.86115C45.3696 7.73368 45.0666 7.66973 44.7245 7.66973C44.3011 7.66973 43.9153 7.7669 43.5674 7.96105C43.2194 8.15561 42.9438 8.43083 42.7409 8.78756C42.5377 9.14449 42.4364 9.55472 42.4364 10.0187C42.4364 10.4828 42.5377 10.8932 42.7409 11.25C42.9438 11.6065 43.2194 11.8821 43.5674 12.0763C43.9153 12.2706 44.3011 12.3678 44.7245 12.3678C45.4321 12.3678 46.0264 12.075 46.5079 11.489L47.1953 12.1502C46.8937 12.5042 46.5309 12.7797 46.1077 12.9767C45.6843 13.1738 45.2204 13.2725 44.7157 13.2725C44.1124 13.2725 43.563 13.1306 43.0671 12.8461Z" fill="white"/>
<path d="M48.2656 6.90424H49.2227V9.92294H49.2748L51.7545 6.90424H52.9551V6.95649L50.3276 10.0709L53.0943 13.081V13.1333H51.8415L49.2748 10.2797H49.2227V13.1333H48.2656V6.90424Z" fill="white"/>
<path d="M57.5483 10.6452L56.8524 8.73531L56.6175 8.02207H56.5653L56.3304 8.73531L55.6345 10.6452H57.5483ZM56.0433 6.90424H57.1308L59.4885 13.1333H58.4359L57.8616 11.5325H55.3212L54.747 13.1333H53.6943L56.0433 6.90424Z" fill="white"/>
<path d="M63.09 10.358C62.7013 10.7003 62.2227 10.8713 61.6545 10.8713C61.2773 10.8713 60.9367 10.7946 60.6322 10.6408C60.3277 10.4872 60.0884 10.2655 59.9143 9.97518C59.7403 9.68512 59.6533 9.34323 59.6533 8.94868V6.90424H60.619V8.78338C60.619 9.16059 60.7293 9.4519 60.9498 9.65775C61.1701 9.86359 61.4658 9.96662 61.8371 9.96662C62.3418 9.96662 62.7594 9.76955 63.09 9.375V6.90424H64.0383V13.1333H63.09V10.358Z" fill="white"/>
<path d="M68.7358 10.6452L68.0399 8.73531L67.805 8.02207H67.7528L67.5179 8.73531L66.822 10.6452H68.7358ZM67.2308 6.90424H68.3183L70.676 13.1333H69.6234L69.0491 11.5325H66.5087L65.9345 13.1333H64.8818L67.2308 6.90424Z" fill="white"/>
<path d="M72.2946 7.80891H70.5459V6.90424H74.9917V7.80891H73.2518V13.1333H72.2946V7.80891Z" fill="white"/>
<path d="M78.3323 12.2372C78.5586 12.2372 78.7586 12.1849 78.9327 12.0806C79.1068 11.9762 79.2401 11.8384 79.3329 11.6675C79.4257 11.4963 79.4721 11.3149 79.4721 11.1235C79.4721 10.9323 79.4257 10.7511 79.3329 10.58C79.2401 10.4088 79.1068 10.2696 78.9327 10.1624C78.7586 10.055 78.5586 10.0013 78.3323 10.0013H76.9405V12.2372H78.3323ZM75.9834 6.90424H76.9405V9.12255H78.2627C78.6514 9.12255 79.0111 9.20238 79.3417 9.36204C79.6723 9.52149 79.936 9.75346 80.1333 10.0579C80.3306 10.3624 80.429 10.7177 80.429 11.1235C80.429 11.5298 80.3306 11.885 80.1333 12.1895C79.936 12.494 79.6723 12.7274 79.3417 12.8896C79.0111 13.0522 78.6514 13.1333 78.2627 13.1333H75.9834V6.90424Z" fill="white"/>
<path d="M83.5088 6.90424H84.4569V10.3493L84.4049 11.5498H84.4569L87.2497 6.90424H88.3372V13.1333H87.3889V9.60111L87.4411 8.40053H87.3889L84.5526 13.1333H83.5088V6.90424Z" fill="white"/>
<path d="M90.212 12.8723C89.8206 12.6056 89.5523 12.211 89.4072 11.689L90.2858 11.3411C90.3612 11.666 90.5077 11.9212 90.7253 12.1068C90.9428 12.2926 91.1996 12.3851 91.4953 12.3851C91.8142 12.3851 92.087 12.2852 92.3131 12.085C92.5394 11.885 92.6525 11.637 92.6525 11.3411C92.6525 11.1496 92.5971 10.9743 92.4872 10.8149C92.3768 10.6554 92.2261 10.5292 92.0347 10.4364C91.8433 10.3436 91.6345 10.2972 91.4084 10.2972H90.8949V9.46193H91.3562C91.6694 9.46193 91.9302 9.37646 92.1392 9.20531C92.348 9.03415 92.4523 8.80386 92.4523 8.51359C92.4523 8.25842 92.3551 8.04694 92.1607 7.8785C91.9664 7.71027 91.7242 7.62626 91.4345 7.62626C91.1735 7.62626 90.9528 7.70463 90.7731 7.86115C90.5932 8.01768 90.4686 8.20346 90.399 8.41787L89.555 8.06992C89.6768 7.72783 89.8987 7.42481 90.2208 7.16066C90.5426 6.89693 90.9499 6.76506 91.4431 6.76506C91.8199 6.76506 92.1551 6.83883 92.4479 6.98679C92.7409 7.13454 92.9699 7.33787 93.1352 7.59575C93.3005 7.85405 93.3833 8.14537 93.3833 8.47012C93.3833 9.07344 93.1191 9.51982 92.5914 9.80988V9.86213C92.8873 9.99566 93.1279 10.1898 93.3137 10.445C93.499 10.7003 93.592 11.0105 93.592 11.376C93.592 11.73 93.5005 12.0518 93.3178 12.3417C93.1352 12.6317 92.8842 12.8593 92.5655 13.0246C92.2462 13.1899 91.8895 13.2725 91.4953 13.2725C91.0312 13.2725 90.6034 13.1391 90.212 12.8723Z" fill="white"/>
</g>
<defs>
<clipPath id="clip0_924_51047">
<rect width="135" height="40" fill="white"/>
</clipPath>
</defs>
</svg>
