<svg width="135" height="40" viewBox="0 0 135 40" fill="none" xmlns="http://www.w3.org/2000/svg">
<g clip-path="url(#clip0_924_51048)">
<mask id="mask0_924_51048" style="mask-type:luminance" maskUnits="userSpaceOnUse" x="0" y="0" width="135" height="40">
<path d="M135 0H0V40H135V0Z" fill="white"/>
</mask>
<g mask="url(#mask0_924_51048)">
<path d="M130 39.9998H5.00003C2.24987 39.9998 0 37.7499 0 34.9998V4.99982C0 2.24986 2.24987 -0.000209808 5.00003 -0.000209808H130C132.75 -0.000209808 135 2.24986 135 4.99982V34.9998C135 37.7499 132.75 39.9998 130 39.9998Z" fill="#030404"/>
<path d="M130 0H5.00003C2.24987 0 0 2.25007 0 5.00003V35C0 37.7501 2.24987 40 5.00003 40H130C132.75 40 135 37.7501 135 35V5.00003C135 2.25007 132.75 0 130 0ZM130 0.799971C132.316 0.799971 134.2 2.68412 134.2 5.00003V35C134.2 37.3161 132.316 39.2 130 39.2H5.00003C2.68391 39.2 0.799971 37.3161 0.799971 35V5.00003C0.799971 2.68412 2.68391 0.799971 5.00003 0.799971H130Z" fill="#A7A5A6"/>
<path d="M106.936 30H108.802V17.499H106.936V30ZM123.743 22.0019L121.604 27.422H121.54L119.32 22.0019H117.31L120.639 29.577L118.741 33.791H120.687L125.818 22.0019H123.743ZM113.161 28.5799C112.549 28.5799 111.697 28.274 111.697 27.5181C111.697 26.5531 112.758 26.184 113.675 26.184C114.495 26.184 114.881 26.361 115.38 26.602C115.235 27.7601 114.238 28.5799 113.161 28.5799ZM113.386 21.729C112.035 21.729 110.635 22.3239 110.056 23.642L111.713 24.3339C112.067 23.642 112.726 23.4169 113.418 23.4169C114.383 23.4169 115.364 23.996 115.38 25.025V25.1539C115.042 24.9611 114.318 24.672 113.434 24.672C111.649 24.672 109.831 25.653 109.831 27.4859C109.831 29.159 111.295 30.2361 112.935 30.2361C114.19 30.2361 114.881 29.6739 115.316 29.014H115.38V29.9791H117.181V25.1859C117.181 22.967 115.525 21.729 113.386 21.729ZM101.854 23.5239H99.1999V19.238H101.854C103.249 19.238 104.041 20.394 104.041 21.381C104.041 22.3501 103.249 23.5239 101.854 23.5239ZM101.806 17.499H97.335V30H99.1999V25.2641H101.806C103.874 25.2641 105.907 23.7659 105.907 21.381C105.907 18.996 103.874 17.499 101.806 17.499ZM77.425 28.582C76.136 28.582 75.057 27.5031 75.057 26.021C75.057 24.523 76.136 23.4269 77.425 23.4269C78.6979 23.4269 79.696 24.523 79.696 26.021C79.696 27.5031 78.6979 28.582 77.425 28.582ZM79.567 22.702H79.5031C79.0841 22.203 78.2791 21.7509 77.2641 21.7509C75.1369 21.7509 73.1879 23.62 73.1879 26.021C73.1879 28.405 75.1369 30.258 77.2641 30.258C78.2791 30.258 79.0841 29.8071 79.5031 29.2911H79.567V29.903C79.567 31.5309 78.6979 32.4001 77.296 32.4001C76.1519 32.4001 75.443 31.579 75.153 30.886L73.5261 31.5631C73.9929 32.691 75.2341 34.0761 77.296 34.0761C79.487 34.0761 81.34 32.7871 81.34 29.6459V22.009H79.567V22.702ZM82.6279 30H84.497V17.498H82.6279V30ZM87.252 25.876C87.2039 24.2319 88.5251 23.395 89.4751 23.395C90.217 23.395 90.845 23.7651 91.0539 24.2969L87.252 25.876ZM93.052 24.458C92.6969 23.507 91.618 21.7509 89.411 21.7509C87.22 21.7509 85.4 23.475 85.4 26.0051C85.4 28.3889 87.2039 30.258 89.6199 30.258C91.5699 30.258 92.6969 29.066 93.1651 28.3731L91.7149 27.4061C91.231 28.115 90.571 28.582 89.6199 28.582C88.6701 28.582 87.993 28.1469 87.5579 27.2941L93.2451 24.941L93.052 24.458ZM47.7439 23.057V24.861H52.061C51.9319 25.876 51.594 26.617 51.079 27.1319C50.45 27.761 49.467 28.4531 47.7439 28.4531C45.0849 28.4531 43.007 26.3111 43.007 23.652C43.007 20.994 45.0849 18.852 47.7439 18.852C49.178 18.852 50.2249 19.415 50.9979 20.1399L52.2708 18.8681C51.191 17.837 49.7579 17.047 47.7439 17.047C44.1029 17.047 41.042 20.012 41.042 23.652C41.042 27.2941 44.1029 30.258 47.7439 30.258C49.709 30.258 51.191 29.6129 52.3509 28.405C53.5429 27.213 53.914 25.538 53.914 24.1841C53.914 23.7651 53.8816 23.3791 53.8167 23.057H47.7439ZM58.8219 28.582C57.534 28.582 56.422 27.519 56.422 26.0051C56.422 24.4739 57.534 23.4269 58.8219 23.4269C60.1109 23.4269 61.2229 24.4739 61.2229 26.0051C61.2229 27.519 60.1109 28.582 58.8219 28.582ZM58.8219 21.7509C56.4698 21.7509 54.5527 23.54 54.5527 26.0051C54.5527 28.4531 56.4698 30.258 58.8219 30.258C61.174 30.258 63.092 28.4531 63.092 26.0051C63.092 23.54 61.174 21.7509 58.8219 21.7509ZM68.1359 28.582C66.8469 28.582 65.7349 27.519 65.7349 26.0051C65.7349 24.4739 66.8469 23.4269 68.1359 23.4269C69.4251 23.4269 70.536 24.4739 70.536 26.0051C70.536 27.519 69.4251 28.582 68.1359 28.582ZM68.1359 21.7509C65.784 21.7509 63.8669 23.54 63.8669 26.0051C63.8669 28.4531 65.784 30.258 68.1359 30.258C70.4879 30.258 72.4049 28.4531 72.4049 26.0051C72.4049 23.54 70.4879 21.7509 68.1359 21.7509Z" fill="white"/>
<path d="M20.7174 19.424L10.0703 30.7241C10.0714 30.7259 10.0714 30.7291 10.0724 30.731C10.3995 31.9581 11.5194 32.8611 12.8493 32.8611C13.3814 32.8611 13.8804 32.7171 14.3084 32.4651L14.3425 32.445L26.3266 25.5301L20.7174 19.424Z" fill="#EB4335"/>
<path d="M31.4888 17.4999L31.4787 17.4928L26.3046 14.4939L20.4756 19.6808L26.3255 25.5288L31.4716 22.5599C32.3736 22.0717 32.9867 21.1209 32.9867 20.0248C32.9867 18.9347 32.3826 17.9887 31.4888 17.4999Z" fill="#FABC13"/>
<path d="M10.0695 9.27699C10.0055 9.51313 9.97168 9.76098 9.97168 10.017V29.9851C9.97168 30.2411 10.0055 30.489 10.0705 30.7241L21.0827 19.713L10.0695 9.27699Z" fill="#547DBF"/>
<path d="M20.7961 20.0009L26.3063 14.492L14.3362 7.55186C13.9013 7.29106 13.3933 7.14101 12.8501 7.14101C11.5202 7.14101 10.3982 8.04589 10.0711 9.27406C10.0711 9.27489 10.0703 9.27594 10.0703 9.27698L20.7961 20.0009Z" fill="#30A851"/>
</g>
<path d="M43.7505 12.2284C44.4581 12.2284 45.0077 12.0328 45.3991 11.6414C45.7905 11.25 45.9863 10.7091 45.9863 10.0187C45.9863 9.32861 45.7905 8.78756 45.3991 8.39614C45.0077 8.00452 44.4581 7.80891 43.7505 7.80891H42.7411V12.2284H43.7505ZM41.7842 6.90424H43.7766C44.4204 6.90424 44.9816 7.03465 45.4599 7.29566C45.9385 7.55668 46.3067 7.92364 46.5648 8.39614C46.8231 8.86906 46.952 9.40969 46.952 10.0187C46.952 10.6276 46.8231 11.1687 46.5648 11.6414C46.3067 12.1141 45.9385 12.4808 45.4599 12.7419C44.9816 13.0029 44.4204 13.1333 43.7766 13.1333H41.7842V6.90424Z" fill="white"/>
<path d="M48.2051 6.90424H51.9809V7.80891H49.162V9.56642H51.7023V10.4711H49.162V12.2284H51.9809V13.1333H48.2051V6.90424Z" fill="white"/>
<path d="M53.6591 12.82C53.2474 12.5187 52.9602 12.0953 52.7979 11.5498L53.7027 11.1845C53.7955 11.5325 53.9608 11.8169 54.1986 12.0372C54.436 12.2577 54.7234 12.3678 55.06 12.3678C55.3731 12.3678 55.6385 12.2867 55.8558 12.1241C56.0734 11.9619 56.1823 11.7385 56.1823 11.4541C56.1823 11.1931 56.0866 10.9772 55.8951 10.8061C55.7037 10.6349 55.3731 10.4682 54.9033 10.3058L54.5117 10.1666C54.0883 10.0157 53.7362 9.8057 53.4547 9.53591C53.1734 9.26612 53.0327 8.90814 53.0327 8.46155C53.0327 8.15414 53.1155 7.86993 53.2808 7.60892C53.4461 7.3479 53.6779 7.14185 53.9765 6.99118C54.2755 6.84029 54.6133 6.76506 54.9905 6.76506C55.5298 6.76506 55.9618 6.89693 56.2868 7.16066C56.6113 7.42481 56.8318 7.72197 56.948 8.05258L56.0865 8.41787C56.0285 8.2091 55.9066 8.02959 55.7213 7.8785C55.5355 7.72783 55.2949 7.65238 54.999 7.65238C54.7148 7.65238 54.4739 7.72783 54.277 7.8785C54.0797 8.02959 53.9811 8.22102 53.9811 8.45277C53.9811 8.6674 54.0693 8.84586 54.2465 8.98776C54.4233 9.12986 54.6973 9.26486 55.0686 9.39234L55.4688 9.53152C56.0023 9.7173 56.414 9.95784 56.7043 10.2535C56.9941 10.5495 57.1392 10.944 57.1392 11.4368C57.1392 11.843 57.0364 12.1837 56.8303 12.4591C56.6245 12.7345 56.3605 12.9391 56.0387 13.0725C55.7167 13.2058 55.3875 13.2725 55.0513 13.2725C54.5349 13.2725 54.071 13.1218 53.6591 12.82Z" fill="white"/>
<path d="M59.5976 12.8461C59.1017 12.5621 58.7113 12.1707 58.4273 11.6717C58.1431 11.1731 58.001 10.6222 58.001 10.0187C58.001 9.41554 58.1431 8.86467 58.4273 8.36584C58.7113 7.86701 59.1017 7.47538 59.5976 7.19138C60.0935 6.90696 60.6429 6.76506 61.246 6.76506C62.1799 6.76506 62.9483 7.10423 63.5515 7.78279L62.8817 8.43543C62.6671 8.18006 62.428 7.98884 62.164 7.86115C61.8999 7.73347 61.5971 7.66973 61.2548 7.66973C60.8314 7.66973 60.4456 7.7669 60.0977 7.96105C59.7497 8.15561 59.4743 8.43083 59.2711 8.78756C59.068 9.14428 58.9667 9.55472 58.9667 10.0187C58.9667 10.4828 59.068 10.8932 59.2711 11.25C59.4743 11.6065 59.7497 11.8821 60.0977 12.0763C60.4456 12.2706 60.8314 12.3678 61.2548 12.3678C61.9624 12.3678 62.5569 12.075 63.0382 11.489L63.7255 12.1502C63.424 12.5042 63.0616 12.7797 62.638 12.9767C62.2146 13.1738 61.7507 13.2725 61.246 13.2725C60.6429 13.2725 60.0935 13.1306 59.5976 12.8461Z" fill="white"/>
<path d="M68.1882 10.6452L67.4921 8.73532L67.2572 8.02207H67.2049L66.97 8.73532L66.2741 10.6452H68.1882ZM66.6831 6.90424H67.7704L70.1281 13.1333H69.0755L68.5012 11.5325H65.9609L65.3868 13.1333H64.334L66.6831 6.90424Z" fill="white"/>
<path d="M73.2259 9.80988C73.5276 9.80988 73.7813 9.71417 73.9874 9.52275C74.193 9.33153 74.2962 9.091 74.2962 8.80073C74.2962 8.53407 74.2018 8.30043 74.0133 8.10023C73.825 7.90024 73.574 7.80034 73.2608 7.80034H72.0253V9.80988H73.2259ZM71.0684 6.90424H73.252C73.629 6.90424 73.9698 6.98533 74.2743 7.1477C74.5788 7.31008 74.8193 7.5364 74.9965 7.82647C75.1733 8.11653 75.2619 8.444 75.2619 8.8095C75.2619 9.22704 75.1269 9.59694 74.8573 9.91876C74.5876 10.2406 74.2496 10.4569 73.8436 10.5668L73.8348 10.6103L75.5491 13.081V13.1333H74.4442L72.7822 10.6886H72.0253V13.1333H71.0684V6.90424Z" fill="white"/>
<path d="M77.7448 12.8461C77.2489 12.5621 76.8588 12.1707 76.5748 11.6717C76.2903 11.1731 76.1484 10.6222 76.1484 10.0187C76.1484 9.41554 76.2903 8.86467 76.5748 8.36584C76.8588 7.86701 77.2489 7.47538 77.7448 7.19138C78.2407 6.90696 78.7901 6.76506 79.3935 6.76506C80.3274 6.76506 81.0958 7.10423 81.6989 7.78279L81.0291 8.43543C80.8145 8.18006 80.5752 7.98884 80.3115 7.86115C80.0474 7.73347 79.7445 7.66973 79.4022 7.66973C78.9788 7.66973 78.5931 7.7669 78.2451 7.96105C77.8972 8.15561 77.6217 8.43083 77.4186 8.78756C77.2155 9.14428 77.1141 9.55472 77.1141 10.0187C77.1141 10.4828 77.2155 10.8932 77.4186 11.25C77.6217 11.6065 77.8972 11.8821 78.2451 12.0763C78.5931 12.2706 78.9788 12.3678 79.4022 12.3678C80.1098 12.3678 80.7044 12.075 81.1857 11.489L81.873 12.1502C81.5714 12.5042 81.2091 12.7797 80.7855 12.9767C80.3621 13.1738 79.8981 13.2725 79.3935 13.2725C78.7901 13.2725 78.2407 13.1306 77.7448 12.8461Z" fill="white"/>
<path d="M86.3368 10.6452L85.6407 8.73531L85.4058 8.02207H85.3536L85.1187 8.73531L84.4228 10.6452H86.3368ZM84.8272 6.30385C84.6502 6.20521 84.5083 6.07042 84.4008 5.89926C84.2934 5.72832 84.2401 5.53836 84.2401 5.32959H84.936C84.936 5.45706 84.9766 5.56573 85.0579 5.65559C85.139 5.74566 85.2493 5.79059 85.3885 5.79059C85.516 5.79059 85.6202 5.74566 85.7017 5.65559C85.7826 5.56573 85.8234 5.45706 85.8234 5.32959H86.5195C86.5195 5.53836 86.4672 5.72832 86.3629 5.89926C86.2585 6.07042 86.1193 6.20521 85.9452 6.30385C85.7713 6.40248 85.5855 6.4518 85.3885 6.4518C85.191 6.4518 85.0042 6.40248 84.8272 6.30385ZM84.8318 6.90424H85.9191L88.2768 13.1333H87.2242L86.6499 11.5325H84.1095L83.5353 13.1333H82.4824L84.8318 6.90424Z" fill="white"/>
<path d="M93.1047 12.2284C93.8126 12.2284 94.3622 12.0328 94.7536 11.6414C95.145 11.25 95.3408 10.7091 95.3408 10.0187C95.3408 9.32861 95.145 8.78756 94.7536 8.39614C94.3622 8.00452 93.8126 7.80891 93.1047 7.80891H92.0956V12.2284H93.1047ZM91.1387 6.90424H93.1309C93.7747 6.90424 94.336 7.03465 94.8144 7.29566C95.293 7.55668 95.6612 7.92364 95.9193 8.39614C96.1776 8.86906 96.3065 9.40969 96.3065 10.0187C96.3065 10.6276 96.1776 11.1687 95.9193 11.6414C95.6612 12.1141 95.293 12.4808 94.8144 12.7419C94.336 13.0029 93.7747 13.1333 93.1309 13.1333H91.1387V6.90424Z" fill="white"/>
<path d="M97.5596 6.90424H101.335V7.80891H98.5165V9.56642H101.057V10.4711H98.5165V12.2284H101.335V13.1333H97.5596V6.90424Z" fill="white"/>
<path d="M106.729 9.80988C107.047 9.80988 107.304 9.70999 107.499 9.50979C107.693 9.30959 107.79 9.07616 107.79 8.8095C107.79 8.54285 107.693 8.30921 107.499 8.10901C107.304 7.90901 107.047 7.80891 106.729 7.80891H105.519V9.80988H106.729ZM104.562 6.90424H106.703C107.074 6.90424 107.414 6.98533 107.725 7.1477C108.035 7.31008 108.281 7.5364 108.464 7.82647C108.647 8.11653 108.739 8.444 108.739 8.8095C108.739 9.1748 108.647 9.50248 108.464 9.79254C108.281 10.0826 108.035 10.3089 107.725 10.4711C107.414 10.6335 107.074 10.7148 106.703 10.7148H105.519V13.1333H104.562V6.90424Z" fill="white"/>
<path d="M109.756 6.90424H113.532V7.80891H110.713V9.56642H113.253V10.4711H110.713V12.2284H113.532V13.1333H109.756V6.90424Z" fill="white"/>
</g>
<defs>
<clipPath id="clip0_924_51048">
<rect width="135" height="40" fill="white"/>
</clipPath>
</defs>
</svg>
