<svg width="125" height="48" viewBox="0 0 125 48" fill="none" xmlns="http://www.w3.org/2000/svg">
<g clip-path="url(#clip0_289_24384)">
<path d="M34.5377 16.214L7.88842 0.817623C7.12672 0.366558 6.25924 0.125828 5.37414 0.119141C2.47687 0.119141 0.12793 2.46747 0.12793 5.36474V38.4085C0.128538 41.2632 2.44343 43.5769 5.29754 43.5763C6.26897 43.5757 7.22094 43.3022 8.04405 42.7854L34.7237 25.9301C37.376 24.2699 38.1802 20.7745 36.5207 18.1222C36.0264 17.3331 35.3456 16.6772 34.5377 16.214Z" fill="#73287D"/>
<path d="M14.5036 6.48267H4.91757V41.9587C4.91514 41.9587 4.91271 41.9581 4.91028 41.9575C4.73094 41.938 4.55648 41.9022 4.38566 41.8572C4.34371 41.8462 4.29994 41.8371 4.2586 41.8243C4.19721 41.8061 4.13824 41.783 4.07866 41.7611C4.03246 41.7441 3.98565 41.7289 3.94006 41.7101C3.88353 41.687 3.82942 41.6602 3.77411 41.6341C3.7279 41.6122 3.6811 41.5909 3.63611 41.5672C3.58383 41.5398 3.53338 41.5095 3.48292 41.4791C3.43793 41.4523 3.39234 41.4262 3.34796 41.397C3.29994 41.366 3.25374 41.3319 3.20693 41.2985C3.16377 41.2669 3.12 41.2353 3.07806 41.2019C3.03429 41.1666 2.99173 41.1301 2.94918 41.093C2.90784 41.0566 2.86711 41.0201 2.8276 40.9824C2.78748 40.9441 2.74918 40.9046 2.71088 40.8645C2.67258 40.8243 2.63489 40.783 2.59842 40.7405C2.56255 40.6997 2.52851 40.6578 2.49447 40.6158C2.45921 40.5702 2.42456 40.524 2.39113 40.4772C2.36073 40.4341 2.33033 40.3909 2.30116 40.3465C2.26894 40.2973 2.23915 40.2462 2.20936 40.1958C2.18322 40.1502 2.15708 40.1052 2.13277 40.059C2.1048 40.0055 2.07927 39.9508 2.05374 39.8955C2.03246 39.8487 2.01058 39.8025 1.99052 39.755C1.96681 39.6967 1.94614 39.6371 1.92547 39.5775C1.90967 39.5307 1.89204 39.4845 1.87745 39.4365C1.8586 39.3727 1.8428 39.307 1.82699 39.2414C1.81605 39.1958 1.80328 39.1508 1.79416 39.1046C1.77957 39.031 1.76985 38.9557 1.76012 38.8803C1.75465 38.8401 1.74675 38.8019 1.7431 38.7617C1.73155 38.6481 1.72547 38.5338 1.72547 38.4177C1.72547 38.4146 1.72486 38.4116 1.72486 38.4085V5.36474C1.72486 3.98298 2.4969 2.7775 3.63307 2.15805C3.83915 2.04559 4.058 1.95258 4.28596 1.88085C4.49629 1.81519 4.71575 1.77021 4.94067 1.74346C5.0811 1.72644 5.22335 1.7155 5.36863 1.7155C5.51879 1.71671 5.66833 1.72826 5.81605 1.74954C5.96438 1.77021 6.11089 1.80121 6.25557 1.84194C6.54432 1.92279 6.82456 2.04255 7.09022 2.19939L9.63612 3.67051L14.5036 6.48267ZM18.0373 12.6286C19.6063 12.6286 20.7972 12.9337 21.6112 13.5441C22.4246 14.1544 22.8319 15.0693 22.8319 16.29C22.8319 17.5392 22.4246 18.4772 21.6112 19.1009C20.7972 19.7271 19.6063 20.0389 18.0373 20.0389H12.9808V12.6286H18.0373ZM15.4702 36.2055L12.9808 37.7781V25.7483H15.2477C16.0325 25.7483 16.7364 25.8651 17.362 26.0973C17.9857 26.3301 18.4586 26.766 18.7784 27.4049L21.3711 32.4778L15.4702 36.2055ZM30.3456 13.8401C30.4009 14.1337 30.4453 14.4353 30.4756 14.7453C30.4428 14.4365 30.4009 14.1337 30.3456 13.8401ZM25.4471 24.4189C27.1036 23.6493 28.3674 22.5599 29.2392 21.1502C30.1109 19.741 30.5474 18.0334 30.5474 16.028C30.5474 15.9295 30.5358 15.8383 30.534 15.741V15.7441L32.2288 16.7234L33.7437 17.5988C33.8009 17.6316 33.8538 17.6723 33.9091 17.7076C34.2009 17.8948 34.4665 18.1179 34.7018 18.372C34.8732 18.5581 35.0331 18.7544 35.1681 18.969C35.8374 20.0389 35.9468 21.3027 35.5753 22.4164C35.4927 22.6638 35.3863 22.904 35.2574 23.1331C35.1279 23.3617 34.9753 23.5793 34.8015 23.7818C34.7146 23.8833 34.6215 23.9812 34.5237 24.0742C34.3832 24.2079 34.2282 24.3295 34.0659 24.4444C34.0015 24.49 33.9395 24.538 33.8714 24.58L31.1067 26.3271L27.8817 28.3642C27.2495 27.1593 26.4538 26.211 25.4908 25.5307C25.1079 25.2602 24.7024 25.0438 24.2756 24.8784C24.6817 24.7441 25.0738 24.5927 25.4471 24.4189ZM37.1991 19.6857C37.0568 19.1465 36.8325 18.6195 36.5212 18.1222C36.1504 17.5301 35.6744 17.0134 35.1194 16.5964C34.934 16.4578 34.7401 16.3295 34.5383 16.214L33.4367 15.5775L30.3383 13.7872C29.9614 11.8438 29.0677 10.2492 27.6483 9.01094C25.7158 7.32584 22.9772 6.48267 19.4325 6.48267H17.6951L10.5559 2.35805L7.889 0.817015C7.36742 0.508808 6.79538 0.306983 6.20329 0.202424C6.03794 0.173853 5.87198 0.155616 5.7042 0.14285C5.59417 0.134947 5.48535 0.119749 5.37471 0.119141C2.47745 0.119141 0.12851 2.46747 0.12851 5.36474V38.4085C0.12851 38.583 0.137628 38.7557 0.154649 38.9259C0.160728 38.9836 0.17167 39.0395 0.179573 39.0967C0.194163 39.2073 0.208145 39.3186 0.230029 39.4268C0.244011 39.4979 0.264679 39.566 0.2817 39.6359C0.304193 39.7277 0.324862 39.8201 0.352218 39.9101C0.375318 39.9867 0.40389 40.0608 0.430637 40.1356C0.459209 40.2146 0.485348 40.2949 0.517567 40.3721C0.550394 40.4529 0.588692 40.5307 0.625774 40.6091C0.657993 40.6766 0.688388 40.7453 0.723647 40.8116C0.767416 40.8943 0.81544 40.9745 0.864072 41.0547C0.898114 41.1119 0.930941 41.1696 0.967416 41.225C1.02213 41.3095 1.0817 41.3903 1.14128 41.4712C1.17593 41.518 1.20997 41.5654 1.24584 41.611C1.3127 41.6955 1.38322 41.7763 1.45495 41.856C1.489 41.8936 1.52182 41.9313 1.55647 41.9678C1.6355 42.0511 1.71818 42.1301 1.80207 42.2073C1.83368 42.2365 1.86468 42.2657 1.8969 42.2936C1.98869 42.3739 2.08292 42.4499 2.18018 42.5234C2.20815 42.5447 2.23611 42.566 2.26407 42.5867C2.36863 42.662 2.47502 42.7338 2.58505 42.8013C2.60875 42.8158 2.63246 42.8304 2.65617 42.8444C2.77289 42.9143 2.89143 42.9788 3.01362 43.0389C3.03307 43.0487 3.05252 43.0578 3.07137 43.0669C3.19964 43.1283 3.33034 43.1842 3.46347 43.2353C3.47806 43.2408 3.49265 43.2456 3.50723 43.2511C3.64644 43.3028 3.78809 43.3484 3.93277 43.3879C3.94249 43.3909 3.95222 43.3927 3.96195 43.3958C4.11149 43.4353 4.26286 43.4693 4.41787 43.4961C4.42274 43.4967 4.4276 43.4973 4.43307 43.4979C4.59234 43.5247 4.75344 43.5447 4.91757 43.5569C4.95587 43.5599 4.99477 43.5599 5.03307 43.563C5.10055 43.566 5.16803 43.5721 5.23611 43.5727C5.25678 43.5739 5.27623 43.5757 5.2969 43.5757H5.29812C6.26955 43.5757 7.22092 43.3016 8.04402 42.7854L19.7759 35.3733L22.1006 33.9052L28.6367 29.7757L34.7243 25.9301C36.8793 24.5812 37.8143 22.0207 37.1991 19.6857Z" fill="#AAD044"/>
<path d="M49.8584 11.8879C50.5368 11.331 50.8766 10.5371 50.8766 9.5055C50.8766 8.47389 50.5368 7.68301 49.8584 7.13346C49.1794 6.58331 48.1958 6.30854 46.9058 6.30854H43.4438V12.7225H46.9058C48.1958 12.7225 49.1794 12.4447 49.8584 11.8879ZM50.9374 18.7906L47.8633 14.4125C47.4827 14.4399 47.1842 14.4532 46.9666 14.4532H43.4438V18.7906H41.4079V4.53711H46.9666C48.8128 4.53711 50.2657 4.97845 51.3247 5.86051C52.383 6.74319 52.9125 7.95778 52.9125 9.5055C52.9125 10.6052 52.6408 11.5414 52.0985 12.3152C51.555 13.0891 50.7818 13.6526 49.7769 14.0052L53.1575 18.7906H50.9374Z" fill="#73287D"/>
<path d="M64.5807 13.5985L61.5053 6.61431L58.4312 13.5985H64.5807ZM65.2932 15.2277H57.7187L56.1509 18.7912H54.0536L60.5084 4.53711H62.5236L68.9996 18.7912H66.861L65.2932 15.2277Z" fill="#73287D"/>
<path d="M76.3929 17.0192C77.5461 17.0192 78.5613 16.7949 79.4372 16.3475C80.3126 15.8994 80.988 15.2715 81.4634 14.4636C81.9382 13.6563 82.1758 12.7225 82.1758 11.6636C82.1758 10.6052 81.9382 9.67207 81.4634 8.86416C80.988 8.05626 80.3126 7.4283 79.4372 6.98027C78.5613 6.53286 77.5461 6.30854 76.3929 6.30854H72.5442V17.0192H76.3929ZM70.5078 4.53711H76.5151C78.022 4.53711 79.3588 4.83559 80.5266 5.43255C81.6938 6.03012 82.6002 6.86842 83.2445 7.94805C83.8895 9.02708 84.2117 10.266 84.2117 11.6636C84.2117 13.0623 83.8895 14.3006 83.2445 15.3803C82.6002 16.4593 81.6938 17.2976 80.5266 17.8946C79.3588 18.4921 78.022 18.7906 76.5151 18.7906H70.5078V4.53711Z" fill="#73287D"/>
<path d="M88.1478 4.53711H86.1113V18.7906H88.1478V4.53711Z" fill="#73287D"/>
<path d="M100.463 16.4287C101.297 15.954 101.956 15.2987 102.438 14.464C102.919 13.6293 103.161 12.6956 103.161 11.664C103.161 10.6324 102.919 9.69926 102.438 8.8646C101.956 8.02935 101.297 7.37463 100.463 6.89925C99.6281 6.42387 98.6877 6.18679 97.6421 6.18679C96.5971 6.18679 95.65 6.42387 94.8013 6.89925C93.9533 7.37463 93.2877 8.02935 92.8062 8.8646C92.3241 9.69926 92.0834 10.6324 92.0834 11.664C92.0834 12.6956 92.3241 13.6293 92.8062 14.464C93.2877 15.2987 93.9533 15.954 94.8013 16.4287C95.65 16.9041 96.5971 17.1412 97.6421 17.1412C98.6877 17.1412 99.6281 16.9041 100.463 16.4287ZM93.7533 18.0069C92.5989 17.3759 91.6931 16.5035 91.0348 15.3904C90.3764 14.2774 90.0469 13.0354 90.0469 11.664C90.0469 10.2932 90.3764 9.05123 91.0348 7.93755C91.6931 6.82509 92.5989 5.95275 93.7533 5.32114C94.9065 4.69013 96.2032 4.37402 97.6421 4.37402C99.0676 4.37402 100.357 4.69013 101.511 5.32114C102.665 5.95275 103.568 6.82144 104.22 7.92783C104.871 9.03421 105.197 10.2792 105.197 11.664C105.197 13.0488 104.871 14.2944 104.22 15.4008C103.568 16.5072 102.665 17.3759 101.511 18.0069C100.357 18.6385 99.0676 18.954 97.6421 18.954C96.2032 18.954 94.9065 18.6385 93.7533 18.0069Z" fill="#73287D"/>
<path d="M49.5526 29.8861C49.9727 29.5269 50.1836 29.0138 50.1836 28.3494C50.1836 27.6843 49.9727 27.1676 49.5526 26.8016C49.1319 26.4351 48.507 26.2515 47.6791 26.2515H45.4389V30.426H47.6791C48.507 30.426 49.1319 30.2466 49.5526 29.8861ZM51.2833 23.7165C52.2335 24.1445 52.9666 24.7554 53.4827 25.5488C53.9982 26.3433 54.256 27.277 54.256 28.3494C54.256 29.4211 53.9982 30.3518 53.4827 31.139C52.9666 31.9257 52.2335 32.533 51.2833 32.9615C50.3332 33.3889 49.2128 33.6023 47.9234 33.6023H45.4389V37.3287H41.4079V23.0752H47.9234C49.2128 23.0752 50.3332 23.2886 51.2833 23.7165Z" fill="#73287D"/>
<path d="M56.211 23.0752H60.2426V34.1317H67.0439V37.3287H56.211V23.0752Z" fill="#73287D"/>
<path d="M77.1636 31.5864L75.3308 27.0254L73.4986 31.5864H77.1636ZM78.3448 34.5597H72.3174L71.1977 37.3287H67.0846L73.3764 23.0752H77.3472L83.6597 37.3287H79.4645L78.3448 34.5597Z" fill="#73287D"/>
<path d="M91.5393 32.2181V37.3287H87.5077V32.1567L82.0712 23.0752H86.3271L89.7065 28.7354L93.087 23.0752H96.997L91.5393 32.2181Z" fill="#73287D"/>
<path d="M109.398 34.2142V37.3297H97.9539V23.0762H109.133V26.1917H101.945V28.5941H108.277V31.6081H101.945V34.2142H109.398Z" fill="#73287D"/>
<path d="M119.782 26.8016C119.361 26.4351 118.736 26.2521 117.908 26.2521H115.668V30.426H117.908C118.736 30.426 119.361 30.2466 119.782 29.8861C120.202 29.5269 120.413 29.0144 120.413 28.3494C120.413 27.6843 120.202 27.1682 119.782 26.8016ZM117.868 33.5415H115.668V37.3287H111.637V23.0752H118.153C119.442 23.0752 120.562 23.2892 121.513 23.7165C122.463 24.1445 123.196 24.7554 123.712 25.5488C124.227 26.3433 124.485 27.277 124.485 28.3494C124.485 29.381 124.245 30.2807 123.763 31.0466C123.281 31.8144 122.592 32.4144 121.696 32.8491L124.77 37.3287H120.454L117.868 33.5415Z" fill="#73287D"/>
<path d="M46.1423 47.832L46.135 44.1116L44.2894 47.2119H43.9538L42.1082 44.1335V47.832H41.4079V42.7256H42.0061L44.1362 46.3146L46.2371 42.7256H46.8359L46.8426 47.832H46.1423Z" fill="#61676B"/>
<path d="M52.4195 46.9855C52.7186 46.8153 52.9545 46.5807 53.1271 46.2816C53.2998 45.9825 53.3861 45.6481 53.3861 45.2785C53.3861 44.9089 53.2998 44.5746 53.1271 44.2755C52.9545 43.9764 52.7186 43.7418 52.4195 43.5716C52.1205 43.4013 51.7837 43.3162 51.4092 43.3162C51.0347 43.3162 50.6955 43.4013 50.3916 43.5716C50.0876 43.7418 49.8493 43.9764 49.6767 44.2755C49.504 44.5746 49.4183 44.9089 49.4183 45.2785C49.4183 45.6481 49.504 45.9825 49.6767 46.2816C49.8493 46.5807 50.0876 46.8153 50.3916 46.9855C50.6955 47.1557 51.0347 47.2409 51.4092 47.2409C51.7837 47.2409 52.1205 47.1557 52.4195 46.9855ZM50.0159 47.5509C49.6025 47.3247 49.2779 47.0123 49.042 46.6135C48.8062 46.2147 48.6882 45.7697 48.6882 45.2785C48.6882 44.7874 48.8062 44.3424 49.042 43.9436C49.2779 43.5448 49.6025 43.2323 50.0159 43.0062C50.4293 42.7801 50.8937 42.667 51.4092 42.667C51.9198 42.667 52.3819 42.7801 52.7952 43.0062C53.2086 43.2323 53.532 43.5436 53.7654 43.9399C53.9989 44.3363 54.1156 44.7825 54.1156 45.2785C54.1156 45.7746 53.9989 46.2208 53.7654 46.6171C53.532 47.0135 53.2086 47.3247 52.7952 47.5509C52.3819 47.777 51.9198 47.8901 51.4092 47.8901C50.8937 47.8901 50.4293 47.777 50.0159 47.5509Z" fill="#61676B"/>
<path d="M55.9605 42.7256H56.69V47.1973H59.4548V47.832H55.9605V42.7256Z" fill="#61676B"/>
<path d="M63.1314 47.1973C63.5454 47.1973 63.9083 47.1171 64.2226 46.9566C64.5363 46.7961 64.7776 46.5712 64.9478 46.2818C65.1186 45.9925 65.2031 45.6581 65.2031 45.2788C65.2031 44.8994 65.1186 44.5651 64.9478 44.2757C64.7776 43.9864 64.5363 43.7615 64.2226 43.601C63.9083 43.4405 63.5454 43.3602 63.1314 43.3602H61.7527V47.1973H63.1314ZM61.0232 42.7256H63.1752C63.7156 42.7256 64.194 42.8326 64.6129 43.0466C65.0305 43.2605 65.3551 43.5608 65.5861 43.9475C65.8171 44.3341 65.9326 44.7779 65.9326 45.2788C65.9326 45.7797 65.8171 46.2235 65.5861 46.6101C65.3551 46.9967 65.0305 47.297 64.6129 47.511C64.194 47.725 63.7156 47.832 63.1752 47.832H61.0232V42.7256Z" fill="#61676B"/>
<path d="M71.0937 46.9855C71.3928 46.8153 71.6287 46.5807 71.8013 46.2816C71.974 45.9825 72.0603 45.6481 72.0603 45.2785C72.0603 44.9089 71.974 44.5746 71.8013 44.2755C71.6287 43.9764 71.3928 43.7418 71.0937 43.5716C70.7946 43.4013 70.4579 43.3162 70.0834 43.3162C69.7089 43.3162 69.3697 43.4013 69.0658 43.5716C68.7618 43.7418 68.5235 43.9764 68.3509 44.2755C68.1782 44.5746 68.0925 44.9089 68.0925 45.2785C68.0925 45.6481 68.1782 45.9825 68.3509 46.2816C68.5235 46.5807 68.7618 46.8153 69.0658 46.9855C69.3697 47.1557 69.7089 47.2409 70.0834 47.2409C70.4579 47.2409 70.7946 47.1557 71.0937 46.9855ZM68.6901 47.5509C68.2767 47.3247 67.9521 47.0123 67.7162 46.6135C67.4804 46.2147 67.3624 45.7697 67.3624 45.2785C67.3624 44.7874 67.4804 44.3424 67.7162 43.9436C67.9521 43.5448 68.2767 43.2323 68.6901 43.0062C69.1035 42.7801 69.5679 42.667 70.0834 42.667C70.594 42.667 71.056 42.7801 71.4694 43.0062C71.8828 43.2323 72.2062 43.5436 72.4396 43.9399C72.6731 44.3363 72.7898 44.7825 72.7898 45.2785C72.7898 45.7746 72.6731 46.2208 72.4396 46.6171C72.2062 47.0135 71.8828 47.3247 71.4694 47.5509C71.056 47.777 70.594 47.8901 70.0834 47.8901C69.5679 47.8901 69.1035 47.777 68.6901 47.5509Z" fill="#61676B"/>
<path d="M78.9101 42.7256L76.6706 47.832H75.9484L73.7022 42.7256H74.4901L76.3278 46.9201L78.1813 42.7256H78.9101Z" fill="#61676B"/>
<path d="M83.1264 45.9718L82.0249 43.4697L80.9234 45.9718H83.1264ZM83.3818 46.5554H80.6681L80.1058 47.832H79.355L81.6675 42.7256H82.3897L84.7094 47.832H83.9435L83.3818 46.5554Z" fill="#61676B"/>
</g>
<defs>
<clipPath id="clip0_289_24384">
<rect width="124.888" height="48" fill="white"/>
</clipPath>
</defs>
</svg>
