<svg width="38" height="38" viewBox="0 0 38 38" fill="none" xmlns="http://www.w3.org/2000/svg">
<g clip-path="url(#clip0_289_22922)">
<path d="M32.0531 37.924H5.97112C2.71936 37.924 0.0589294 35.2635 0.0589294 32.0118V5.92985C0.0589294 2.67809 2.71936 0.017662 5.97112 0.017662H32.0531C35.3048 0.017662 37.9652 2.67809 37.9652 5.92985V32.0118C37.9652 35.2635 35.3048 37.924 32.0531 37.924Z" fill="#73287D"/>
<path d="M8.72454 8.20972C8.72454 7.19223 9.34459 6.31726 10.2264 5.94207C10.3 5.91084 10.3754 5.88319 10.4522 5.85914C10.6062 5.81103 10.7664 5.77764 10.9315 5.7604C11.0141 5.75179 11.0978 5.74748 11.1825 5.74748C11.2837 5.7482 11.3846 5.75609 11.4844 5.7701C11.6844 5.79882 11.8804 5.85375 12.0686 5.93418C12.1626 5.97439 12.2546 6.02106 12.3443 6.0742L14.0619 7.06656L17.346 8.96369H10.8784V32.8986C10.8777 32.8986 10.8769 32.8983 10.8762 32.8983C10.7542 32.885 10.6353 32.8606 10.5193 32.83C10.491 32.8225 10.4615 32.8164 10.4335 32.8078C10.3926 32.7952 10.3528 32.7798 10.3125 32.7651C10.2813 32.7536 10.2494 32.7435 10.2188 32.7306C10.1808 32.7152 10.1445 32.6972 10.1075 32.6796C10.0763 32.6649 10.0443 32.6505 10.0135 32.6344C9.97865 32.6157 9.9449 32.5952 9.91079 32.5751C9.88027 32.5568 9.84939 32.5392 9.81959 32.5195C9.78692 32.4983 9.75569 32.4753 9.72409 32.4527C9.69501 32.4315 9.66593 32.4103 9.63756 32.3881C9.60776 32.364 9.57868 32.3392 9.54996 32.3141C9.52232 32.2897 9.49503 32.2653 9.46846 32.2398C9.44153 32.2139 9.41532 32.1874 9.38947 32.1601C9.36362 32.1328 9.33813 32.1052 9.31372 32.0768C9.28966 32.0491 9.26632 32.0208 9.24371 31.9924C9.21965 31.9619 9.19667 31.9307 9.17405 31.8991C9.15323 31.87 9.13276 31.8409 9.11338 31.8107C9.09148 31.7774 9.07101 31.7432 9.05126 31.7088C9.03367 31.6783 9.01608 31.6481 8.99956 31.6169C8.98053 31.5806 8.9633 31.5436 8.94607 31.5063C8.93171 31.475 8.91699 31.4438 8.9037 31.4119C8.88755 31.3724 8.8739 31.3322 8.8599 31.2919C8.84877 31.2603 8.83692 31.2291 8.82723 31.1972C8.8143 31.1537 8.80389 31.1092 8.79348 31.065C8.78594 31.0342 8.77732 31.004 8.77122 30.9731C8.76117 30.9229 8.7547 30.8719 8.74788 30.8205C8.74429 30.794 8.73926 30.7681 8.73639 30.7415C8.72885 30.6633 8.72454 30.5836 8.72454 30.5031V8.20972ZM19.73 13.1102C20.7884 13.1102 21.5919 13.3159 22.1412 13.7281C22.6898 14.1395 22.9649 14.757 22.9649 15.5807C22.9649 16.4233 22.6898 17.0559 22.1412 17.4771C21.5919 17.8993 20.7884 18.1097 19.73 18.1097H16.3184V13.1102H19.73ZM16.3184 30.0781V21.9618H17.8479C18.3771 21.9618 18.8525 22.0404 19.274 22.1969C19.6952 22.3542 20.014 22.6482 20.2301 23.0794L21.979 26.5017L16.3184 30.0781ZM24.7291 21.0649C25.8468 20.5457 26.6995 19.8104 27.2876 18.8597C27.8757 17.9086 28.1701 16.7569 28.1701 15.404C28.1701 15.3376 28.1626 15.2762 28.1611 15.2112V15.2123L29.3043 15.8729L30.3265 16.4635C30.7167 16.6872 31.0488 17.0067 31.2872 17.388C31.689 18.0296 31.792 18.7746 31.6337 19.46C31.5942 19.6313 31.5386 19.7989 31.4668 19.9601C31.3953 20.1217 31.3081 20.2765 31.2054 20.4229C31.1027 20.5691 30.9853 20.7062 30.8528 20.8322C30.7868 20.8954 30.7171 20.9554 30.6435 21.0125C30.5703 21.0696 30.4934 21.1234 30.413 21.1737L26.3717 23.7268C25.9452 22.9136 25.4084 22.2741 24.7586 21.8149C24.5001 21.6325 24.2269 21.4864 23.9389 21.3747C24.2129 21.2843 24.4771 21.1819 24.7291 21.0649ZM32.3909 17.1583C32.3338 17.0426 32.2706 16.9285 32.2006 16.8168C31.9504 16.4172 31.6294 16.0686 31.2546 15.7875C31.1296 15.6934 30.9989 15.6072 30.8625 15.529L30.1193 15.0999L28.029 13.8921C28.0696 14.1011 28.0998 14.3165 28.1217 14.5384C28.0983 14.3179 28.0696 14.1011 28.029 13.8921C27.7748 12.5806 27.172 11.5049 26.2141 10.6695C24.9105 9.5324 23.0625 8.96369 20.671 8.96369H19.4988L14.6827 6.18119L12.8832 5.14143C12.3691 4.83733 11.7839 4.67469 11.1868 4.67038C9.965 4.67038 8.8879 5.28935 8.2517 6.23074C7.87005 6.79549 7.64745 7.47658 7.64745 8.20972V30.5031C7.64745 30.6209 7.65355 30.7372 7.66504 30.8518C7.66899 30.8923 7.67725 30.9318 7.68263 30.972C7.69232 31.0449 7.7013 31.1182 7.71566 31.19C7.72572 31.2388 7.73936 31.2858 7.75121 31.3336C7.76629 31.395 7.77993 31.4564 7.79788 31.516C7.81404 31.5684 7.83378 31.619 7.85209 31.6704C7.87076 31.7231 7.88836 31.7763 7.90954 31.828C7.93216 31.8826 7.95801 31.9353 7.98314 31.9885C8.00468 32.0341 8.02515 32.08 8.04884 32.1242C8.07829 32.1805 8.11096 32.2344 8.14363 32.2886C8.16661 32.327 8.18887 32.3658 8.21328 32.4035C8.25026 32.4602 8.29047 32.5152 8.33069 32.5697C8.35402 32.6013 8.37664 32.6333 8.40106 32.6638C8.44629 32.7209 8.49369 32.7751 8.54216 32.8293C8.56513 32.8545 8.58739 32.8803 8.61109 32.9047C8.66423 32.9607 8.71988 33.0142 8.7766 33.0666C8.79779 33.086 8.81861 33.1054 8.84051 33.1244C8.90227 33.1787 8.96581 33.23 9.03152 33.2796C9.05019 33.2939 9.06922 33.3083 9.0886 33.3223C9.15861 33.3729 9.23042 33.421 9.30438 33.467C9.32054 33.4767 9.3367 33.4867 9.35285 33.4964C9.43148 33.5431 9.51154 33.5865 9.59376 33.6275C9.60669 33.6339 9.61997 33.64 9.63326 33.6461C9.71942 33.6874 9.80739 33.7255 9.8975 33.7596C9.9072 33.7635 9.91725 33.7668 9.92695 33.7703C10.021 33.8052 10.1165 33.8361 10.2142 33.863C10.2203 33.8648 10.2267 33.8662 10.2332 33.8676C10.3344 33.8949 10.4368 33.9175 10.5413 33.9355C10.5445 33.9362 10.5477 33.9366 10.5509 33.9369C10.6587 33.9552 10.7674 33.9685 10.8784 33.9768C10.9039 33.9786 10.9297 33.9789 10.9556 33.9807C11.0152 33.9836 11.0741 33.9897 11.1344 33.9897H11.1351C11.3046 33.9897 11.4729 33.9761 11.6395 33.9517C11.7774 33.9319 11.9131 33.901 12.0474 33.8644C12.3773 33.775 12.6951 33.64 12.9877 33.4562L22.4712 27.465L26.8812 24.6789L30.9882 22.0842C32.1066 21.3844 32.7377 20.2007 32.7808 18.9746C32.8024 18.3614 32.6767 17.7377 32.3909 17.1583Z" fill="#AAD044"/>
<path d="M27.8531 31.4747C27.8409 31.326 27.8158 31.1882 27.7773 31.0647C27.7364 30.934 27.6768 30.8173 27.6007 30.7178C27.521 30.6144 27.4158 30.5265 27.2869 30.4575C27.1652 30.3926 27.0169 30.3437 26.846 30.3114C26.6827 30.2805 26.4863 30.2651 26.2622 30.2651C25.9901 30.2651 25.7535 30.2877 25.5607 30.3322C25.3679 30.3768 25.2024 30.4342 25.0684 30.5024C24.9345 30.571 24.83 30.6428 24.75 30.7211C24.7335 30.6995 24.7162 30.6783 24.6979 30.6582C24.6161 30.567 24.5101 30.4906 24.3841 30.4317C24.2653 30.3753 24.1217 30.333 23.958 30.305C23.6395 30.2515 23.1587 30.2511 22.8414 30.31C22.682 30.3401 22.5419 30.3789 22.4263 30.4263C22.3183 30.4701 22.2292 30.5171 22.156 30.5692V30.3545H21.2613V33.9276H22.156V31.7558C22.156 31.6467 22.1711 31.5468 22.2008 31.4596C22.2256 31.386 22.2705 31.3235 22.338 31.2693C22.4098 31.2108 22.5157 31.163 22.6518 31.1275C22.7986 31.0898 22.9922 31.0704 23.2262 31.0704C23.4384 31.0704 23.6101 31.0869 23.735 31.1192C23.842 31.1469 23.9231 31.1892 23.9763 31.246C24.029 31.302 24.0653 31.3799 24.084 31.4779C24.1066 31.6 24.1184 31.7536 24.1184 31.9346V33.9276H25.0132V31.7558C25.0132 31.6467 25.0282 31.5468 25.0577 31.46C25.0832 31.3856 25.128 31.3232 25.1948 31.2693C25.2673 31.2108 25.3733 31.1627 25.5093 31.1275C25.6558 31.0898 25.849 31.0704 26.0834 31.0704C26.2956 31.0704 26.4672 31.0869 26.5922 31.1192C26.6992 31.1469 26.7803 31.1892 26.8334 31.246C26.8862 31.302 26.9225 31.3799 26.9412 31.4779C26.9638 31.6 26.9756 31.7536 26.9756 31.9346V33.9276H27.8703V31.9346C27.8703 31.7691 27.8642 31.6165 27.8531 31.4747Z" fill="#AAD044"/>
<path d="M31.1056 33.1715C30.8112 33.1887 30.3897 33.1887 30.1143 33.165C29.9786 33.1539 29.8615 33.133 29.7664 33.1036C29.6856 33.0785 29.6206 33.0444 29.5747 33.0038C29.5291 32.9629 29.4942 32.9112 29.468 32.8458C29.4382 32.7711 29.4181 32.6771 29.4077 32.5665C29.3959 32.4441 29.3905 32.299 29.3905 32.1328C29.3905 31.9644 29.3959 31.8179 29.4077 31.6926C29.4181 31.5802 29.4382 31.4854 29.4687 31.4093C29.4946 31.3433 29.5291 31.2919 29.5739 31.2517C29.6213 31.2097 29.686 31.1756 29.7664 31.1508C29.8605 31.1214 29.9775 31.1009 30.115 31.0894C30.2618 31.0769 30.4371 31.0704 30.6392 31.0704C30.8144 31.0704 30.9702 31.0743 31.107 31.0815C31.233 31.088 31.3447 31.1041 31.438 31.1293C31.5224 31.1519 31.5931 31.1842 31.6492 31.2244C31.698 31.26 31.7403 31.3117 31.7734 31.3788C31.8118 31.4546 31.8405 31.5526 31.8588 31.6707C31.8782 31.7971 31.8886 31.9554 31.8886 32.1414C31.8886 32.3191 31.8786 32.4713 31.8588 32.5941C31.8409 32.7076 31.8125 32.8024 31.7745 32.8756C31.7407 32.9413 31.6987 32.9923 31.6481 33.0296C31.5931 33.0699 31.5231 33.1018 31.4402 33.1233C31.3451 33.1481 31.2327 33.1639 31.1056 33.1715ZM31.8886 29.2831V30.4665C31.8484 30.4478 31.8043 30.4295 31.7561 30.4123C31.6351 30.3692 31.4869 30.3347 31.3027 30.3064C31.1235 30.2787 30.9002 30.2651 30.6392 30.2651C30.2723 30.2651 29.9542 30.2924 29.6931 30.3466C29.416 30.404 29.1851 30.5067 29.0077 30.6514C28.8254 30.8004 28.6914 31.0029 28.6103 31.2528C28.5342 31.488 28.4954 31.7842 28.4954 32.1328C28.4954 32.4764 28.5342 32.7686 28.6107 33.002C28.6918 33.2497 28.8254 33.4508 29.0081 33.6001C29.1869 33.7459 29.4174 33.849 29.6928 33.9068C29.9549 33.9617 30.2733 33.9893 30.6392 33.9893C30.9063 33.9893 31.1354 33.9653 31.3199 33.9175C31.5019 33.8716 31.6488 33.8202 31.7569 33.7642C31.8021 33.7409 31.8459 33.7147 31.8886 33.6845V33.9276H32.7833V29.2831H31.8886Z" fill="#AAD044"/>
</g>
<defs>
<clipPath id="clip0_289_22922">
<rect width="38" height="38" fill="white"/>
</clipPath>
</defs>
</svg>
