<svg width="0" height="0" class="hidden">
  <symbol fill="none" xmlns="http://www.w3.org/2000/svg" viewBox="0 0 24 24" stroke="currentColor" stroke-width="2" stroke-linecap="round" stroke-linejoin="round" id="paperclip" >
    <path d="M21.44 11.05L12.25 20.24C11.1242 21.3658 9.5972 21.9983 8.00502 21.9983C6.41283 21.9983 4.88586 21.3658 3.76002 20.24C2.63417 19.1141 2.00168 17.5872 2.00168 15.995C2.00168 14.4028 2.63417 12.8758 3.76002 11.75L12.95 2.55998C13.7006 1.80942 14.7186 1.38776 15.78 1.38776C16.8415 1.38776 17.8595 1.80942 18.61 2.55998C19.3606 3.31054 19.7822 4.32852 19.7822 5.38998C19.7822 6.45144 19.3606 7.46942 18.61 8.21998L9.41002 17.41C9.03473 17.7853 8.52574 17.9961 7.99502 17.9961C7.46429 17.9961 6.9553 17.7853 6.58002 17.41C6.20473 17.0347 5.9939 16.5257 5.9939 15.995C5.9939 15.4643 6.20473 14.9553 6.58002 14.58L15.07 6.09998"  ></path>
  </symbol>
  <symbol fill="none" xmlns="http://www.w3.org/2000/svg" viewBox="0 0 24 24" stroke="currentColor" stroke-width="2" stroke-linecap="round" stroke-linejoin="round" id="pause" >
    <path d="M10 4H6V20H10V4Z"  ></path>
    <path d="M18 4H14V20H18V4Z"  ></path>
  </symbol>
  <symbol fill="none" xmlns="http://www.w3.org/2000/svg" viewBox="0 0 24 24" stroke="currentColor" stroke-width="2" stroke-linecap="round" stroke-linejoin="round" id="pause-bk" >
    <path d="M10 4H6V20H10V4Z" fill="currentColor"></path>
    <path d="M18 4H14V20H18V4Z" fill="currentColor"></path>
  </symbol>
  <symbol fill="none" xmlns="http://www.w3.org/2000/svg" viewBox="0 0 24 24" stroke="currentColor" stroke-width="2" stroke-linecap="round" stroke-linejoin="round" id="play">
    <path d="M5 3L19 12L5 21V3Z"  ></path>
  </symbol>
  <symbol fill="none" xmlns="http://www.w3.org/2000/svg" viewBox="0 0 24 24" stroke="currentColor" stroke-width="2" stroke-linecap="round" stroke-linejoin="round" id="play-bk">
    <path d="M5 3L19 12L5 21V3Z" fill="currentColor"></path>
  </symbol>
  <symbol fill="none" xmlns="http://www.w3.org/2000/svg" viewBox="0 0 24 24" stroke="currentColor" stroke-width="2" stroke-linecap="round" stroke-linejoin="round" id="plus">
    <path d="M12 5V19"  ></path>
    <path d="M5 12H19"  ></path>
  </symbol>
  <symbol fill="none" xmlns="http://www.w3.org/2000/svg" viewBox="0 0 24 24" stroke="currentColor" stroke-width="2" stroke-linecap="round" stroke-linejoin="round" id="plus-circle">
    <path d="M12 22C17.5228 22 22 17.5228 22 12C22 6.47715 17.5228 2 12 2C6.47715 2 2 6.47715 2 12C2 17.5228 6.47715 22 12 22Z"  ></path>
    <path d="M12 8V16"  ></path>
    <path d="M8 12H16"  ></path>
  </symbol>
  <symbol fill="none" xmlns="http://www.w3.org/2000/svg" viewBox="0 0 24 24" stroke="currentColor" stroke-width="2" stroke-linecap="round" stroke-linejoin="round" id="q">
    <rect x="1" y="3" width="22" height="18" rx="2"></rect>
    <path d="M14 9H15C16.6569 9 18 10.3431 18 12V12C18 13.6569 16.6569 15 15 15H14V9Z" ></path>
    <line x1="6" y1="8" x2="6" y2="16"></line>
    <line x1="10" y1="8" x2="10" y2="16"></line>
    <line x1="6" y1="12" x2="10" y2="12"></line>
  </symbol>
  <symbol fill="none" xmlns="http://www.w3.org/2000/svg" viewBox="0 0 24 24" stroke="currentColor" stroke-width="2" stroke-linecap="round" stroke-linejoin="round" id="radio">
    <path d="M12 14C13.1046 14 14 13.1046 14 12C14 10.8954 13.1046 10 12 10C10.8954 10 10 10.8954 10 12C10 13.1046 10.8954 14 12 14Z"  ></path>
    <path d="M16.24 7.75999C16.7979 8.31723 17.2404 8.97896 17.5424 9.70735C17.8443 10.4357 17.9997 11.2165 17.9997 12.005C17.9997 12.7935 17.8443 13.5742 17.5424 14.3026C17.2404 15.031 16.7979 15.6928 16.24 16.25M7.76 16.24C7.20214 15.6828 6.75959 15.021 6.45764 14.2926C6.1557 13.5642 6.00028 12.7835 6.00028 11.995C6.00028 11.2065 6.1557 10.4257 6.45764 9.69735C6.75959 8.96896 7.20214 8.30723 7.76 7.74999M19.07 4.92999C20.9447 6.80527 21.9979 9.34835 21.9979 12C21.9979 14.6516 20.9447 17.1947 19.07 19.07M4.93 19.07C3.05529 17.1947 2.00214 14.6516 2.00214 12C2.00214 9.34835 3.05529 6.80527 4.93 4.92999"  ></path>
  </symbol>
  <symbol fill="none" xmlns="http://www.w3.org/2000/svg" viewBox="0 0 24 24" stroke="currentColor" stroke-width="2" stroke-linecap="round" stroke-linejoin="round" id="rewind-ccw">
    <path d="M1 4V10H7"  ></path>
    <path d="M17.8121 18.8797C19.3017 17.6193 20.3413 15.9089 20.7742 14.0063C21.2072 12.1037 21.0101 10.1119 20.2126 8.33105C19.4152 6.55019 18.0605 5.07674 16.3528 4.13271C14.6451 3.18868 12.6769 2.82521 10.7447 3.09707C8.81245 3.36892 7.02091 4.26137 5.64 5.63995L1 9.99995"  ></path>
    <path d="M3 16L5 14V21"  ></path>
    <ellipse cx="10.5" cy="17.5" rx="2.5" ry="3.5"></ellipse>
  </symbol>
  <symbol fill="none" xmlns="http://www.w3.org/2000/svg" viewBox="0 0 24 24" stroke="currentColor" stroke-width="2" stroke-linecap="round" stroke-linejoin="round" id="rewind-cw">
    <path d="M23 4V10H17"  ></path>
    <path d="M6.18376 18.8667C4.69536 17.6047 3.65743 15.8932 3.22637 13.9901C2.79531 12.0869 2.99448 10.0952 3.79386 8.31508C4.59325 6.53496 5.94954 5.06288 7.65836 4.12065C9.36717 3.17843 11.3359 2.81711 13.268 3.09116C15.2 3.3652 16.9906 4.25975 18.37 5.64001L23 10"  ></path>
    <path d="M11 16L13 14V21"  ></path>
    <ellipse cx="18.5" cy="17.5" rx="2.5" ry="3.5"></ellipse>
  </symbol>
  <symbol fill="none" xmlns="http://www.w3.org/2000/svg" viewBox="0 0 24 24" stroke="currentColor" stroke-width="2" stroke-linecap="round" stroke-linejoin="round" id="rotate-ccw">
    <path d="M1 4V10H7"  ></path>
    <path d="M3.51 15C4.15839 16.8404 5.38734 18.4202 7.01166 19.5014C8.63598 20.5826 10.5677 21.1066 12.5157 20.9945C14.4637 20.8824 16.3226 20.1402 17.8121 18.8798C19.3017 17.6194 20.3413 15.909 20.7742 14.0064C21.2072 12.1038 21.0101 10.112 20.2126 8.33111C19.4152 6.55025 18.0605 5.0768 16.3528 4.13277C14.6451 3.18874 12.6769 2.82527 10.7447 3.09713C8.81245 3.36898 7.02091 4.26143 5.64 5.64001L1 10"  ></path>
  </symbol>
  <symbol fill="none" xmlns="http://www.w3.org/2000/svg" viewBox="0 0 24 24" stroke="currentColor" stroke-width="2" stroke-linecap="round" stroke-linejoin="round" id="rotate-cw">
    <path d="M23 4V10H17"  ></path>
    <path d="M20.49 15C19.84 16.8399 18.6096 18.4187 16.9842 19.4985C15.3588 20.5783 13.4265 21.1006 11.4784 20.9866C9.53038 20.8726 7.67216 20.1286 6.18376 18.8667C4.69536 17.6047 3.65743 15.8932 3.22637 13.9901C2.79531 12.0869 2.99448 10.0952 3.79386 8.31508C4.59325 6.53496 5.94954 5.06288 7.65836 4.12065C9.36717 3.17843 11.3359 2.81711 13.268 3.09116C15.2 3.3652 16.9906 4.25975 18.37 5.64001L23 10"  ></path>
  </symbol>
  <symbol fill="none" xmlns="http://www.w3.org/2000/svg" viewBox="0 0 24 24" stroke="currentColor" stroke-width="2" stroke-linecap="round" stroke-linejoin="round" id="search">
    <path d="M11 19C15.4183 19 19 15.4183 19 11C19 6.58172 15.4183 3 11 3C6.58172 3 3 6.58172 3 11C3 15.4183 6.58172 19 11 19Z"  ></path>
    <path d="M21 21L16.65 16.65"  ></path>
  </symbol>
  <symbol fill="none" xmlns="http://www.w3.org/2000/svg" viewBox="0 0 24 24" stroke="currentColor" stroke-width="2" stroke-linecap="round" stroke-linejoin="round" id="share-2">
    <path d="M18 8C19.6569 8 21 6.65685 21 5C21 3.34315 19.6569 2 18 2C16.3431 2 15 3.34315 15 5C15 6.65685 16.3431 8 18 8Z"  ></path>
    <path d="M6 15C7.65685 15 9 13.6569 9 12C9 10.3431 7.65685 9 6 9C4.34315 9 3 10.3431 3 12C3 13.6569 4.34315 15 6 15Z"  ></path>
    <path d="M18 22C19.6569 22 21 20.6569 21 19C21 17.3431 19.6569 16 18 16C16.3431 16 15 17.3431 15 19C15 20.6569 16.3431 22 18 22Z"  ></path>
    <path d="M8.59003 13.51L15.42 17.49"  ></path>
    <path d="M15.41 6.51001L8.59003 10.49"  ></path>
  </symbol>
  <symbol fill="none" xmlns="http://www.w3.org/2000/svg" viewBox="0 0 24 24" stroke="currentColor" stroke-width="2" stroke-linecap="round" stroke-linejoin="round" id="shield">
    <path d="M12 22C12 22 20 18 20 12V5L12 2L4 5V12C4 18 12 22 12 22Z"  ></path>
  </symbol>
  <symbol fill="none" xmlns="http://www.w3.org/2000/svg" viewBox="0 0 24 24" stroke="currentColor" stroke-width="2" stroke-linecap="round" stroke-linejoin="round" id="sliders">
    <path d="M4 21V14"  ></path>
    <path d="M4 10V3"  ></path>
    <path d="M12 21V12"  ></path>
    <path d="M12 8V3"  ></path>
    <path d="M20 21V16"  ></path>
    <path d="M20 12V3"  ></path>
    <path d="M1 14H7"  ></path>
    <path d="M9 8H15"  ></path>
    <path d="M17 16H23"  ></path>
  </symbol>
  <symbol fill="none" xmlns="http://www.w3.org/2000/svg" viewBox="0 0 24 24" stroke="currentColor" stroke-width="2" stroke-linecap="round" stroke-linejoin="round" id="sort">
    <path d="M8 12H16"  ></path>
    <path d="M11 8H13"  ></path>
    <path d="M11 16H13"  ></path>
  </symbol>
  <symbol fill="none" xmlns="http://www.w3.org/2000/svg" viewBox="0 0 24 24" stroke="currentColor" stroke-width="2" stroke-linecap="round" stroke-linejoin="round" id="star">
    <path d="M12 2L15.09 8.26L22 9.27L17 14.14L18.18 21.02L12 17.77L5.82 21.02L7 14.14L2 9.27L8.91 8.26L12 2Z"  ></path>
  </symbol>
  <symbol fill="none" xmlns="http://www.w3.org/2000/svg" viewBox="0 0 24 24" stroke="currentColor" stroke-width="2" stroke-linecap="round" stroke-linejoin="round" id="sun">
    <g clip-path="url(#clip0_22_3612)">
      <path d="M12 17C14.7614 17 17 14.7614 17 12C17 9.23858 14.7614 7 12 7C9.23858 7 7 9.23858 7 12C7 14.7614 9.23858 17 12 17Z"  ></path>
      <path d="M12 1V3"  ></path>
      <path d="M12 21V23"  ></path>
      <path d="M4.21997 4.21997L5.63997 5.63997"  ></path>
      <path d="M18.36 18.36L19.78 19.78"  ></path>
      <path d="M1 12H3"  ></path>
      <path d="M21 12H23"  ></path>
      <path d="M4.21997 19.78L5.63997 18.36"  ></path>
      <path d="M18.36 5.63997L19.78 4.21997"  ></path>
    </g>
    <defs>
      <clipPath id="clip0_22_3612">
        <rect width="24" height="24" fill="white"></rect>
      </clipPath>
    </defs>
  </symbol>
  <symbol fill="none" xmlns="http://www.w3.org/2000/svg" viewBox="0 0 24 24" stroke="currentColor" stroke-width="2" stroke-linecap="round" stroke-linejoin="round" id="timer">
    <path d="M12 22C17.5228 22 22 17.5228 22 12C22 6.47715 17.5228 2 12 2C6.47715 2 2 6.47715 2 12C2 17.5228 6.47715 22 12 22Z"   stroke-dasharray="4 4"></path>
    <path d="M12 22C17.5228 22 22 17.5228 22 12C22 6.47715 17.5228 2 12 2"  ></path>
    <path d="M12 6V12L16 14"  ></path>
  </symbol>
  <symbol fill="none" xmlns="http://www.w3.org/2000/svg" viewBox="0 0 24 24" stroke="currentColor" stroke-width="2" stroke-linecap="round" stroke-linejoin="round" id="timer-2">
    <path d="M12 22C16.9706 22 21 17.9706 21 13C21 8.02944 16.9706 4 12 4C7.02944 4 3 8.02944 3 13C3 17.9706 7.02944 22 12 22Z"   stroke-dasharray="4 4"></path>
    <path d="M12 22C16.9706 22 21 17.9706 21 13C21 8.02944 16.9706 4 12 4"  ></path>
    <path d="M12 8V14"  ></path>
    <path d="M15 1H9"  ></path>
    <path d="M19.5 4.5L18 6"  ></path>
  </symbol>
  <symbol fill="none" xmlns="http://www.w3.org/2000/svg" viewBox="0 0 24 24" stroke="currentColor" stroke-width="2" stroke-linecap="round" stroke-linejoin="round" id="user">
    <path d="M20 21V19C20 17.9391 19.5786 16.9217 18.8284 16.1716C18.0783 15.4214 17.0609 15 16 15H8C6.93913 15 5.92172 15.4214 5.17157 16.1716C4.42143 16.9217 4 17.9391 4 19V21"  ></path>
    <path d="M12 11C14.2091 11 16 9.20914 16 7C16 4.79086 14.2091 3 12 3C9.79086 3 8 4.79086 8 7C8 9.20914 9.79086 11 12 11Z"  ></path>
  </symbol>
  <symbol fill="none" xmlns="http://www.w3.org/2000/svg" viewBox="0 0 24 24" stroke="currentColor" stroke-width="2" stroke-linecap="round" stroke-linejoin="round" id="x">
    <path d="M18 6L6 18"  ></path>
    <path d="M6 6L18 18"  ></path>
  </symbol>
  <symbol fill="none" xmlns="http://www.w3.org/2000/svg" viewBox="0 0 24 24" stroke="currentColor" stroke-width="2" stroke-linecap="round" stroke-linejoin="round" id="volume-2">
    <path d="M11 5L6 9H2V15H6L11 19V5Z"  ></path>
    <path d="M19.07 4.92999C20.9447 6.80527 21.9979 9.34835 21.9979 12C21.9979 14.6516 20.9447 17.1947 19.07 19.07M15.54 8.45999C16.4773 9.39763 17.0039 10.6692 17.0039 11.995C17.0039 13.3208 16.4773 14.5924 15.54 15.53"  ></path>
  </symbol>
  <symbol fill="none" xmlns="http://www.w3.org/2000/svg" viewBox="0 0 24 24" stroke="currentColor" stroke-width="2" stroke-linecap="round" stroke-linejoin="round" id="add-to-list">
    <path d="M3 12H14"  ></path>
    <path d="M3 6H14"  ></path>
    <path d="M3 18H11"  ></path>
    <path d="M15 18H21"  ></path>
    <path d="M18 21L18 15"  ></path>
  </symbol>
  <symbol fill="none" xmlns="http://www.w3.org/2000/svg" viewBox="0 0 24 24" stroke="currentColor" stroke-width="2" stroke-linecap="round" stroke-linejoin="round" id="alert-triangle">
    <path d="M10.29 3.85996L1.81999 18C1.64536 18.3024 1.55296 18.6453 1.55198 18.9945C1.551 19.3437 1.64148 19.6871 1.81442 19.9905C1.98735 20.2939 2.23672 20.5467 2.5377 20.7238C2.83868 20.9009 3.18079 20.9961 3.52999 21H20.47C20.8192 20.9961 21.1613 20.9009 21.4623 20.7238C21.7633 20.5467 22.0126 20.2939 22.1856 19.9905C22.3585 19.6871 22.449 19.3437 22.448 18.9945C22.447 18.6453 22.3546 18.3024 22.18 18L13.71 3.85996C13.5317 3.56607 13.2807 3.32308 12.9812 3.15444C12.6817 2.98581 12.3437 2.89722 12 2.89722C11.6563 2.89722 11.3183 2.98581 11.0188 3.15444C10.7193 3.32308 10.4683 3.56607 10.29 3.85996Z"  ></path>
    <path d="M12 9V13"  ></path>
    <path d="M12 17H12.01"  ></path>
  </symbol>
  <symbol fill="none" xmlns="http://www.w3.org/2000/svg" viewBox="0 0 24 24" stroke="currentColor" stroke-width="2" stroke-linecap="round" stroke-linejoin="round" id="arrow-left">
    <path d="M19 12H5"  ></path>
    <path d="M12 19L5 12L12 5"  ></path>
  </symbol>
  <symbol fill="none" xmlns="http://www.w3.org/2000/svg" viewBox="0 0 24 24" stroke="currentColor" stroke-width="2" stroke-linecap="round" stroke-linejoin="round" id="arrow-right">
    <path d="M5 12H19"  ></path>
    <path d="M12 5L19 12L12 19"  ></path>
  </symbol>
  <symbol fill="none" xmlns="http://www.w3.org/2000/svg" viewBox="0 0 24 24" stroke="currentColor" stroke-width="2" stroke-linecap="round" stroke-linejoin="round" id="check">
    <path d="M20 6L9 17L4 12"  ></path>
  </symbol>
  <symbol fill="none" xmlns="http://www.w3.org/2000/svg" viewBox="0 0 24 24" stroke="currentColor" stroke-width="2" stroke-linecap="round" stroke-linejoin="round" id="check-circle">
    <path d="M22 11.08V12C21.9988 14.1564 21.3005 16.2547 20.0093 17.9818C18.7182 19.709 16.9033 20.9725 14.8354 21.5839C12.7674 22.1953 10.5573 22.1219 8.53447 21.3746C6.51168 20.6273 4.78465 19.2461 3.61096 17.4371C2.43727 15.628 1.87979 13.4881 2.02168 11.3363C2.16356 9.18455 2.99721 7.13631 4.39828 5.49706C5.79935 3.85781 7.69279 2.71537 9.79619 2.24013C11.8996 1.7649 14.1003 1.98232 16.07 2.85999"  ></path>
    <path d="M22 4L12 14.01L9 11.01"  ></path>
  </symbol>
  <symbol fill="none" xmlns="http://www.w3.org/2000/svg" viewBox="0 0 24 24" stroke="currentColor" stroke-width="2" stroke-linecap="round" stroke-linejoin="round" id="chevron-down">
    <path d="M6 9L12 15L18 9"  ></path>
  </symbol>
  <symbol fill="none" xmlns="http://www.w3.org/2000/svg" viewBox="0 0 24 24" stroke="currentColor" stroke-width="2" stroke-linecap="round" stroke-linejoin="round" id="chevron-left">
    <path d="M15 18L9 12L15 6"  ></path>
  </symbol>
  <symbol fill="none" xmlns="http://www.w3.org/2000/svg" viewBox="0 0 24 24" stroke="currentColor" stroke-width="2" stroke-linecap="round" stroke-linejoin="round" id="chevron-right">
    <path d="M9 18L15 12L9 6"  ></path>
  </symbol>
  <symbol fill="none" xmlns="http://www.w3.org/2000/svg" viewBox="0 0 24 24" stroke="currentColor" stroke-width="2" stroke-linecap="round" stroke-linejoin="round" id="chevrons-left">
    <path d="M11 17L6 12L11 7"  ></path>
    <path d="M18 17L13 12L18 7"  ></path>
  </symbol>
  <symbol fill="none" xmlns="http://www.w3.org/2000/svg" viewBox="0 0 24 24" stroke="currentColor" stroke-width="2" stroke-linecap="round" stroke-linejoin="round" id="chevrons-right">
    <path d="M13 17L18 12L13 7"  ></path>
    <path d="M6 17L11 12L6 7"  ></path>
  </symbol>
  <symbol fill="none" xmlns="http://www.w3.org/2000/svg" viewBox="0 0 24 24" stroke="currentColor" stroke-width="2" stroke-linecap="round" stroke-linejoin="round" id="chevron-up">
    <path d="M18 15L12 9L6 15"  ></path>
  </symbol>
  <symbol fill="none" xmlns="http://www.w3.org/2000/svg" viewBox="0 0 24 24" stroke="currentColor" stroke-width="2" stroke-linecap="round" stroke-linejoin="round" id="clock">
    <path d="M12 22C17.5228 22 22 17.5228 22 12C22 6.47715 17.5228 2 12 2C6.47715 2 2 6.47715 2 12C2 17.5228 6.47715 22 12 22Z"  ></path>
    <path d="M12 6V12L16 14"  ></path>
  </symbol>
  <symbol fill="none" xmlns="http://www.w3.org/2000/svg" viewBox="0 0 24 24" stroke="currentColor" stroke-width="2" stroke-linecap="round" stroke-linejoin="round" id="download-cloud">
    <g clip-path="url(#clip0_22_3639)">
      <path d="M8 17L12 21L16 17"  ></path>
      <path d="M12 12V21"  ></path>
      <path d="M20.88 18.0901C21.7494 17.4787 22.4014 16.6062 22.7413 15.5992C23.0812 14.5922 23.0914 13.5031 22.7704 12.4899C22.4494 11.4767 21.8139 10.5921 20.9561 9.96462C20.0983 9.33709 19.0628 8.99922 18 9.00006H16.74C16.4392 7.82793 15.8765 6.7393 15.0941 5.81614C14.3117 4.89297 13.3301 4.15932 12.2232 3.67041C11.1163 3.1815 9.91284 2.95008 8.70352 2.99357C7.4942 3.03706 6.31051 3.35433 5.24155 3.92148C4.17259 4.48864 3.24622 5.2909 2.53218 6.26788C1.81814 7.24487 1.33505 8.3711 1.11925 9.5618C0.903464 10.7525 0.960604 11.9767 1.28637 13.1421C1.61214 14.3075 2.19805 15.3838 2.99999 16.2901"  ></path>
    </g>
    <defs>
      <clipPath id="clip0_22_3639">
        <rect width="24" height="24" fill="white"></rect>
      </clipPath>
    </defs>
  </symbol>
  <symbol fill="none" xmlns="http://www.w3.org/2000/svg" viewBox="0 0 24 24" stroke="currentColor" stroke-width="2" stroke-linecap="round" stroke-linejoin="round" id="edit-2">
    <path d="M17 3.00006C17.2626 2.73741 17.5744 2.52907 17.9176 2.38693C18.2608 2.24479 18.6286 2.17163 19 2.17163C19.3714 2.17163 19.7392 2.24479 20.0824 2.38693C20.4256 2.52907 20.7374 2.73741 21 3.00006C21.2626 3.2627 21.471 3.57451 21.6131 3.91767C21.7553 4.26083 21.8284 4.62862 21.8284 5.00006C21.8284 5.37149 21.7553 5.73929 21.6131 6.08245C21.471 6.42561 21.2626 6.73741 21 7.00006L7.5 20.5001L2 22.0001L3.5 16.5001L17 3.00006Z"  ></path>
  </symbol>
  <symbol fill="none" xmlns="http://www.w3.org/2000/svg" viewBox="0 0 24 24" stroke="currentColor" stroke-width="2" stroke-linecap="round" stroke-linejoin="round" id="grid">
    <path d="M10 3H3V10H10V3Z"  ></path>
    <path d="M21 3H14V10H21V3Z"  ></path>
    <path d="M21 14H14V21H21V14Z"  ></path>
    <path d="M10 14H3V21H10V14Z"  ></path>
  </symbol>
  <symbol fill="none" xmlns="http://www.w3.org/2000/svg" viewBox="0 0 24 24" stroke="currentColor" stroke-width="2" stroke-linecap="round" stroke-linejoin="round" id="heart">
    <path d="M20.84 4.60999C20.3292 4.099 19.7228 3.69364 19.0554 3.41708C18.3879 3.14052 17.6725 2.99817 16.95 2.99817C16.2275 2.99817 15.5121 3.14052 14.8446 3.41708C14.1772 3.69364 13.5708 4.099 13.06 4.60999L12 5.66999L10.94 4.60999C9.9083 3.5783 8.50903 2.9987 7.05 2.9987C5.59096 2.9987 4.19169 3.5783 3.16 4.60999C2.1283 5.64169 1.54871 7.04096 1.54871 8.49999C1.54871 9.95903 2.1283 11.3583 3.16 12.39L4.22 13.45L12 21.23L19.78 13.45L20.84 12.39C21.351 11.8792 21.7563 11.2728 22.0329 10.6053C22.3095 9.93789 22.4518 9.22248 22.4518 8.49999C22.4518 7.77751 22.3095 7.0621 22.0329 6.39464C21.7563 5.72718 21.351 5.12075 20.84 4.60999Z"  ></path>
  </symbol>
  <symbol fill="none" xmlns="http://www.w3.org/2000/svg" viewBox="0 0 24 24" stroke="currentColor" stroke-width="2" stroke-linecap="round" stroke-linejoin="round" id="image">
    <path d="M19 3H5C3.89543 3 3 3.89543 3 5V19C3 20.1046 3.89543 21 5 21H19C20.1046 21 21 20.1046 21 19V5C21 3.89543 20.1046 3 19 3Z"  ></path>
    <path d="M8.5 10C9.32843 10 10 9.32843 10 8.5C10 7.67157 9.32843 7 8.5 7C7.67157 7 7 7.67157 7 8.5C7 9.32843 7.67157 10 8.5 10Z"  ></path>
    <path d="M21 15L16 10L5 21"  ></path>
  </symbol>
  <symbol fill="none" xmlns="http://www.w3.org/2000/svg" viewBox="0 0 24 24" stroke="currentColor" stroke-width="2" stroke-linecap="round" stroke-linejoin="round" id="key">
    <path d="M21 2L19 4M19 4L22 7L18.5 10.5L15.5 7.5M19 4L15.5 7.5M11.39 11.61C11.9064 12.1195 12.3168 12.726 12.5978 13.3948C12.8787 14.0635 13.0246 14.7813 13.0271 15.5066C13.0295 16.232 12.8884 16.9507 12.6119 17.6213C12.3355 18.2919 11.9291 18.9012 11.4162 19.4141C10.9033 19.9271 10.294 20.3334 9.62333 20.6099C8.95271 20.8864 8.23403 21.0275 7.50866 21.025C6.7833 21.0226 6.06557 20.8767 5.39682 20.5958C4.72807 20.3148 4.1215 19.9043 3.61203 19.388C2.61016 18.3507 2.05579 16.9614 2.06832 15.5193C2.08085 14.0772 2.65928 12.6977 3.67903 11.678C4.69877 10.6583 6.07824 10.0798 7.52032 10.0673C8.96241 10.0548 10.3517 10.6091 11.389 11.611L11.39 11.61ZM11.39 11.61L15.5 7.5"  ></path>
  </symbol>
  <symbol fill="none" xmlns="http://www.w3.org/2000/svg" viewBox="0 0 24 24" stroke="currentColor" stroke-width="2" stroke-linecap="round" stroke-linejoin="round" id="list">
    <path d="M8 6H21"  ></path>
    <path d="M8 12H21"  ></path>
    <path d="M8 18H21"  ></path>
    <path d="M3 6H3.01"  ></path>
    <path d="M3 12H3.01"  ></path>
    <path d="M3 18H3.01"  ></path>
  </symbol>
  <symbol fill="none" xmlns="http://www.w3.org/2000/svg" viewBox="0 0 24 24" stroke="currentColor" stroke-width="2" stroke-linecap="round" stroke-linejoin="round" id="log-in">
    <path d="M15 3H19C19.5304 3 20.0391 3.21071 20.4142 3.58579C20.7893 3.96086 21 4.46957 21 5V19C21 19.5304 20.7893 20.0391 20.4142 20.4142C20.0391 20.7893 19.5304 21 19 21H15"  ></path>
    <path d="M10 17L15 12L10 7"  ></path>
    <path d="M15 12H3"  ></path>
  </symbol>
  <symbol fill="none" xmlns="http://www.w3.org/2000/svg" viewBox="0 0 24 24" stroke="currentColor" stroke-width="2" stroke-linecap="round" stroke-linejoin="round" id="log-out">
    <path d="M9 21H5C4.46957 21 3.96086 20.7893 3.58579 20.4142C3.21071 20.0391 3 19.5304 3 19V5C3 4.46957 3.21071 3.96086 3.58579 3.58579C3.96086 3.21071 4.46957 3 5 3H9"  ></path>
    <path d="M16 17L21 12L16 7"  ></path>
    <path d="M21 12H9"  ></path>
  </symbol>
  <symbol fill="none" xmlns="http://www.w3.org/2000/svg" viewBox="0 0 24 24" stroke="currentColor" stroke-width="2" stroke-linecap="round" stroke-linejoin="round" id="mail">
    <path d="M4 4H20C21.1 4 22 4.9 22 6V18C22 19.1 21.1 20 20 20H4C2.9 20 2 19.1 2 18V6C2 4.9 2.9 4 4 4Z"  ></path>
    <path d="M22 6L12 13L2 6"  ></path>
  </symbol>
  <symbol fill="none" xmlns="http://www.w3.org/2000/svg" viewBox="0 0 24 24" stroke="currentColor" stroke-width="2" stroke-linecap="round" stroke-linejoin="round" id="menu">
    <path d="M3 12H21"  ></path>
    <path d="M3 6H21"  ></path>
    <path d="M3 18H21"  ></path>
  </symbol>
  <symbol fill="none" xmlns="http://www.w3.org/2000/svg" viewBox="0 0 24 24" stroke="currentColor" stroke-width="2" stroke-linecap="round" stroke-linejoin="round" id="menu-2">
    <path d="M9 15L21 15"  ></path>
    <path d="M3 9H21"  ></path>
  </symbol>
  <symbol fill="none" xmlns="http://www.w3.org/2000/svg" viewBox="0 0 24 24" stroke="currentColor" stroke-width="2" stroke-linecap="round" stroke-linejoin="round" id="mic">
    <path d="M12 1C11.2044 1 10.4413 1.31607 9.87868 1.87868C9.31607 2.44129 9 3.20435 9 4V12C9 12.7956 9.31607 13.5587 9.87868 14.1213C10.4413 14.6839 11.2044 15 12 15C12.7956 15 13.5587 14.6839 14.1213 14.1213C14.6839 13.5587 15 12.7956 15 12V4C15 3.20435 14.6839 2.44129 14.1213 1.87868C13.5587 1.31607 12.7956 1 12 1Z"  ></path>
    <path d="M19 10V12C19 13.8565 18.2625 15.637 16.9497 16.9497C15.637 18.2625 13.8565 19 12 19C10.1435 19 8.36301 18.2625 7.05025 16.9497C5.7375 15.637 5 13.8565 5 12V10"  ></path>
    <path d="M12 19V23"  ></path>
    <path d="M8 23H16"  ></path>
  </symbol>
  <symbol fill="none" xmlns="http://www.w3.org/2000/svg" viewBox="0 0 24 24" stroke="currentColor" stroke-width="2" stroke-linecap="round" stroke-linejoin="round" id="moon">
    <path d="M21 12.79C20.8427 14.4922 20.2039 16.1144 19.1583 17.4668C18.1127 18.8192 16.7035 19.8458 15.0957 20.4265C13.4879 21.0073 11.748 21.1181 10.0795 20.7461C8.41104 20.3741 6.88302 19.5345 5.67425 18.3258C4.46548 17.117 3.62596 15.589 3.25393 13.9205C2.8819 12.252 2.99274 10.5121 3.57348 8.9043C4.15423 7.29651 5.18085 5.88737 6.53324 4.84175C7.88562 3.79614 9.50782 3.15731 11.21 3C10.2134 4.34827 9.73387 6.00945 9.85856 7.68141C9.98324 9.35338 10.7039 10.9251 11.8894 12.1106C13.075 13.2961 14.6466 14.0168 16.3186 14.1415C17.9906 14.2662 19.6518 13.7866 21 12.79Z"  ></path>
  </symbol>
  <symbol fill="none" xmlns="http://www.w3.org/2000/svg" viewBox="0 0 24 24" stroke="currentColor" stroke-width="2" stroke-linecap="round" stroke-linejoin="round" id="more-vertical">
    <path d="M12 13C12.5523 13 13 12.5523 13 12C13 11.4477 12.5523 11 12 11C11.4477 11 11 11.4477 11 12C11 12.5523 11.4477 13 12 13Z"  ></path>
    <path d="M12 6C12.5523 6 13 5.55228 13 5C13 4.44772 12.5523 4 12 4C11.4477 4 11 4.44772 11 5C11 5.55228 11.4477 6 12 6Z"  ></path>
    <path d="M12 20C12.5523 20 13 19.5523 13 19C13 18.4477 12.5523 18 12 18C11.4477 18 11 18.4477 11 19C11 19.5523 11.4477 20 12 20Z"  ></path>
  </symbol>
  <symbol fill="none" xmlns="http://www.w3.org/2000/svg" viewBox="0 0 24 24" stroke="currentColor" stroke-width="2" stroke-linecap="round" stroke-linejoin="round" id="music">
    <path d="M9 18V5L21 3V16"  ></path>
    <path d="M6 21C7.65685 21 9 19.6569 9 18C9 16.3431 7.65685 15 6 15C4.34315 15 3 16.3431 3 18C3 19.6569 4.34315 21 6 21Z"  ></path>
    <path d="M18 19C19.6569 19 21 17.6569 21 16C21 14.3431 19.6569 13 18 13C16.3431 13 15 14.3431 15 16C15 17.6569 16.3431 19 18 19Z"  ></path>
  </symbol>

  <symbol viewBox="0 0 24 24" fill="none" xmlns="http://www.w3.org/2000/svg" stroke="currentColor" stroke-width="2" stroke-linecap="round" stroke-linejoin="round" id="timer-3">
    <g clip-path="url(#clip0_455_46606)">
      <path d="M14 17.0856C13.8861 18.3176 13.4238 19.4917 12.667 20.4704C11.9102 21.4492 10.8904 22.1923 9.72672 22.6126C8.56307 23.0329 7.30378 23.1131 6.09621 22.8439C4.88863 22.5746 3.78271 21.967 2.90785 21.0921C2.033 20.2173 1.42539 19.1114 1.15613 17.9038C0.88687 16.6962 0.967092 15.4369 1.38741 14.2733C1.80773 13.1096 2.55076 12.0898 3.52955 11.333C4.50835 10.5762 5.68243 10.1139 6.91441 10C6.19313 10.9758 5.84604 12.1781 5.93628 13.3882C6.02652 14.5983 6.54809 15.7358 7.40614 16.5939C8.26418 17.4519 9.4017 17.9735 10.6118 18.0637C11.8219 18.154 13.0242 17.8069 14 17.0856Z" />
      <path d="M11 4H15L11 9H15" />
      <path d="M17 12H21L17 17H21" />
      <path d="M18 1H23L18 7H23" />
    </g>
    <defs>
      <clipPath id="clip0_455_46606">
        <rect width="24" height="24" fill="white"/>
      </clipPath>
    </defs>
  </symbol>

  <symbol xmlns="http://www.w3.org/2000/svg" viewBox="0 0 24 24" fill="none" stroke="currentColor" stroke-width="2" stroke-linecap="round" stroke-linejoin="round" id="facebook">
    <path d="M18 2h-3a5 5 0 0 0-5 5v3H7v4h3v8h4v-8h3l1-4h-4V7a1 1 0 0 1 1-1h3z"></path>
  </symbol>

  <symbol xmlns="http://www.w3.org/2000/svg" viewBox="0 0 24 24" fill="none" stroke="currentColor" stroke-width="2" stroke-linecap="round" stroke-linejoin="round" id="instagram">
    <rect x="2" y="2" width="20" height="20" rx="5" ry="5"></rect>
    <path d="M16 11.37A4 4 0 1 1 12.63 8 4 4 0 0 1 16 11.37z"></path>
    <line x1="17.5" y1="6.5" x2="17.51" y2="6.5"></line>
  </symbol>

</svg>
